<svg xmlns="http://www.w3.org/2000/svg" viewBox="-3 46 137 150" role="img" aria-label="Quickler">
  <path d="M105.124 189.3L104.706 139.535H102.198C100.387 142.879 97.809 146.153 94.465 149.358C91.2603 152.563 87.0803 155.21 81.925 157.3C76.7697 159.251 70.43 160.226 62.906 160.226C53.8493 160.226 45.559 158.136 38.035 153.956C30.6503 149.637 24.7983 143.576 20.479 135.773C16.1597 127.831 14 118.496 14 107.767V105.259C14 94.391 16.1597 85.0557 20.479 77.253C24.9377 69.4503 30.8593 63.459 38.244 59.279C45.6287 54.9597 53.8493 52.8 62.906 52.8C74.0527 52.8 82.6913 55.0294 88.822 59.488C95.092 63.8074 99.69 68.7537 102.616 74.327H105.124V55.726H117.246V189.3H105.124Z" fill="#3B5BDB"/>
</svg>
