<?xml version="1.0" encoding="UTF-8"?>
<svg version="1.1" xmlns="http://www.w3.org/2000/svg" width="2160" height="569">
<path d="M0 0 C2.65527344 1.25244141 2.65527344 1.25244141 5.359375 2.8515625 C6.88884766 3.74584961 6.88884766 3.74584961 8.44921875 4.65820312 C9.53847656 5.30724609 10.62773437 5.95628906 11.75 6.625 C12.90697352 7.30502178 14.06453713 7.98404047 15.22265625 8.66210938 C17.62665148 10.07067324 20.02805773 11.48350641 22.42773438 12.89941406 C27.9283488 16.14016978 33.46603409 19.31666323 39 22.5 C41.16684034 23.74969892 43.3335065 24.99969989 45.5 26.25 C47.10875 27.178125 47.10875 27.178125 48.75 28.125 C69.33333333 40 89.91666667 51.875 110.5 63.75 C111.57266113 64.36883057 112.64532227 64.98766113 113.75048828 65.62524414 C115.91557071 66.87435518 118.08060982 68.12354129 120.24560547 69.37280273 C125.68615706 72.51202309 131.12747216 75.64990563 136.5703125 78.78515625 C147.02206199 84.80747329 157.46299548 90.84669337 167.875 96.9375 C177.14013836 102.35636967 186.44675788 107.6998406 195.77435303 113.01016235 C202.09878229 116.61097612 208.4115733 120.22899561 214.6875 123.9140625 C215.75226563 124.53925781 216.81703125 125.16445312 217.9140625 125.80859375 C219.89011352 126.97171239 221.86425851 128.13807909 223.8359375 129.30859375 C228.59464189 132.11063888 233.39137373 134.73869976 238.33984375 137.19287109 C239.40452881 137.72190033 240.46921387 138.25092957 241.56616211 138.79598999 C242.77091187 139.39197495 242.77091187 139.39197495 244 140 C244.05781386 166.85539133 244.06513695 193.7105154 244.0250721 220.56593895 C243.99664788 239.75571678 244.00729276 258.94501301 244.05392277 278.13475931 C244.09390459 294.90774415 244.09739835 311.6805043 244.07355404 328.45351887 C244.05934699 339.29586548 244.07255108 350.13751175 244.11908519 360.97976983 C244.14881288 368.5072837 244.14512018 376.03433198 244.11592972 383.56184566 C244.09989272 387.96437395 244.09898407 392.36562797 244.13674927 396.76805115 C244.171298 400.83886645 244.16419274 404.90743339 244.12436664 408.97818053 C244.11724149 410.45892417 244.1254052 411.93983487 244.15022576 413.42038763 C244.32417565 424.53779939 244.32417565 424.53779939 241.02920341 428.17622185 C238.73892226 429.72996231 236.53278067 430.89710351 234 432 C232.99453125 432.59651367 231.9890625 433.19302734 230.953125 433.80761719 C229.61507812 434.5447998 229.61507812 434.5447998 228.25 435.296875 C227.23881104 435.85753662 226.22762207 436.41819824 225.18579102 436.99584961 C224.13447998 437.57471924 223.08316895 438.15358887 222 438.75 C214.81107379 442.74175824 207.63363437 446.73998644 200.5625 450.9375 C193.59230165 455.07317969 186.58498988 459.14121067 179.5625 463.1875 C178.45527588 463.82550537 177.34805176 464.46351074 176.20727539 465.12084961 C173.93662932 466.42889477 171.66587642 467.73675448 169.39501953 469.04443359 C166.08420715 470.95149581 162.77430739 472.86012956 159.46484375 474.76953125 C158.39613037 475.38610596 157.32741699 476.00268066 156.22631836 476.63793945 C154.07970354 477.87685214 151.93338064 479.11627077 149.78735352 480.35620117 C144.76969467 483.254204 139.74915555 486.14671387 134.71557617 489.01696777 C132.94884176 490.02478023 131.18324498 491.0345578 129.41796875 492.04492188 C127.21446291 493.30532721 125.00888309 494.56211698 122.80078125 495.81445312 C118.05133501 498.53580676 113.45278539 501.31938988 109.00390625 504.51171875 C103.55928458 508.40600747 97.80445274 511.60323833 91.9375 514.8125 C89.70496153 516.04809317 87.47319114 517.28507517 85.2421875 518.5234375 C84.16678711 519.11995117 83.09138672 519.71646484 81.98339844 520.33105469 C78.14348761 522.47914228 74.34529365 524.69073831 70.5625 526.9375 C54.6851775 536.34059361 38.81270156 545.7262505 22.3737793 554.12182617 C18.20421971 556.26488315 14.13028751 558.48225091 10.1328125 560.93359375 C9.36074463 561.40627686 8.58867676 561.87895996 7.79321289 562.3659668 C6.35300959 563.2595328 4.92167304 564.16762695 3.50170898 565.09301758 C0.54600007 566.93161991 -1.36029447 568.04769805 -4.88793945 567.78466797 C-8.13695886 566.9654675 -10.48104875 565.85058963 -13.359375 564.1484375 C-14.88884766 563.25415039 -14.88884766 563.25415039 -16.44921875 562.34179688 C-17.53847656 561.69275391 -18.62773437 561.04371094 -19.75 560.375 C-20.90697352 559.69497822 -22.06453713 559.01595953 -23.22265625 558.33789062 C-25.62665148 556.92932676 -28.02805773 555.51649359 -30.42773438 554.10058594 C-35.92834935 550.8598299 -41.4660611 547.68338465 -47 544.5 C-49.16422521 543.25158412 -51.32828719 542.0028852 -53.4921875 540.75390625 C-57.85065388 538.23930564 -62.21012191 535.72645339 -66.5703125 533.21484375 C-77.02206199 527.19252671 -87.46299548 521.15330663 -97.875 515.0625 C-106.55262241 509.98724877 -115.26605568 504.97741233 -124 500 C-133.72115617 494.4599827 -143.40894658 488.86625191 -153.06689453 483.21655273 C-163.59084625 477.06233258 -174.15380137 470.97630004 -184.71777344 464.89111328 C-191.21847963 461.14561565 -197.71625032 457.39502735 -204.21435547 453.64501953 C-209.23653702 450.74705111 -214.25927066 447.85005713 -219.28442383 444.95724487 C-221.05045522 443.94052802 -222.81627431 442.92344342 -224.58203125 441.90625 C-226.78734155 440.63599127 -228.99304216 439.36640982 -231.19921875 438.09765625 C-249.37487019 427.62512981 -249.37487019 427.62512981 -251 426 C-251.09688002 424.47264781 -251.12371701 422.94080569 -251.12304783 421.41038418 C-251.12503888 420.41214199 -251.12702993 419.41389981 -251.12908131 418.38540787 C-251.12616847 417.27550949 -251.12325563 416.16561112 -251.12025452 415.02207947 C-251.12110894 413.85332907 -251.12196337 412.68457867 -251.12284368 411.48041159 C-251.12421185 408.2218062 -251.12106444 404.96324006 -251.11606562 401.70463932 C-251.11176437 398.19610331 -251.11320731 394.68756927 -251.1139679 391.17903137 C-251.11449334 385.09542846 -251.11134443 379.01183623 -251.10573006 372.92823601 C-251.0976178 364.13227169 -251.09500012 355.33631256 -251.09374207 346.5403449 C-251.09155111 332.27095291 -251.08488986 318.00156663 -251.07543945 303.73217773 C-251.06626645 289.86726917 -251.05918507 276.00236215 -251.05493164 262.13745117 C-251.05466892 261.28343316 -251.05440619 260.42941515 -251.05413551 259.5495178 C-251.05283051 255.26534407 -251.05156679 250.98117032 -251.05032361 246.69699657 C-251.03994965 211.13132698 -251.02233016 175.56566402 -251 140 C-250.37675842 139.66168655 -249.75351685 139.32337311 -249.11138916 138.97480774 C-246.24541998 137.41811022 -243.3805177 135.85945894 -240.515625 134.30078125 C-239.5354541 133.76876099 -238.5552832 133.23674072 -237.54541016 132.68859863 C-231.89190574 129.61076293 -226.28534821 126.473286 -220.75 123.1875 C-219.99678467 122.74132324 -219.24356934 122.29514648 -218.4675293 121.83544922 C-217.86336182 121.47467285 -217.25919434 121.11389648 -216.63671875 120.7421875 C-210.97521229 117.38062887 -205.2678787 114.09885534 -199.5625 110.8125 C-198.45551758 110.17465576 -197.34853516 109.53681152 -196.20800781 108.87963867 C-193.93712726 107.571414 -191.66613015 106.26339163 -189.39501953 104.95556641 C-183.92830025 101.80667949 -178.46422354 98.6532151 -173 95.5 C-166.47767561 91.73634635 -159.95486237 87.97355377 -153.4296875 84.21484375 C-142.97793801 78.19252671 -132.53700452 72.15330663 -122.125 66.0625 C-112.85500223 60.64078822 -103.54168248 55.29795085 -94.21154785 49.98077393 C-85.0871716 44.77954871 -75.99867226 39.51972122 -66.93310547 34.21655273 C-58.60659968 29.34735995 -50.26304629 24.50823553 -41.89501953 19.71069336 C-36.77292367 16.77140072 -31.66574241 13.81309241 -26.60336304 10.77220154 C-24.22962652 9.34792369 -21.84873347 7.9358602 -19.46722412 6.52462769 C-17.78761798 5.52244577 -16.11850942 4.5027366 -14.44970703 3.48266602 C-12.91999268 2.57859009 -12.91999268 2.57859009 -11.359375 1.65625 C-10.46702148 1.11806641 -9.57466797 0.57988281 -8.65527344 0.02539062 C-5.26497747 -1.28384467 -3.47699506 -0.97847078 0 0 Z " fill="#FF0101" transform="translate(251,1)"/>
<path d="M0 0 C1.04945801 0.28206299 1.04945801 0.28206299 2.12011719 0.56982422 C20.08692685 5.54652756 35.43907217 14.26261029 49 27 C49.90363281 27.8353125 50.80726563 28.670625 51.73828125 29.53125 C57.44425742 35.00344566 63.2621045 40.97320546 67 48 C67.05539267 51.16353683 65.929836 52.07355122 63.734375 54.375 C62.74953125 55.24125 61.7646875 56.1075 60.75 57 C59.64674803 57.98263815 58.54389669 58.96572626 57.44140625 59.94921875 C56.8705127 60.45372559 56.29961914 60.95823242 55.71142578 61.47802734 C53.00312567 63.88652134 50.34591811 66.34924028 47.6875 68.8125 C47.15350586 69.30556641 46.61951172 69.79863281 46.06933594 70.30664062 C41.86568895 74.18960727 37.68126058 78.09295556 33.5 82 C23.75746081 91.10163208 14.01705852 100.19948347 4 109 C2.10912368 106.16368552 1.57405372 104.59499222 0.8125 101.375 C-1.59225776 93.13870467 -6.56852663 87.30313123 -13.91015625 82.97265625 C-22.08844784 79.16631119 -31.11595496 78.57340953 -39.8125 81.125 C-48.80924404 84.70062904 -53.73656391 90.4288707 -58 99 C-60.40816027 106.22448081 -60.1092541 116.77653294 -57.22265625 123.87890625 C-52.3179915 132.38763775 -45.54384622 138.43000623 -36 141 C-26.04469298 142.44828189 -16.90510629 140.03722048 -8.75 134.1875 C-5.57690467 131.62064646 -2.70376195 128.8112472 0.12670898 125.875 C1.923951 124.07611838 3.77794398 122.41343711 5.70703125 120.7578125 C9.97367652 117.05132982 14.08818016 113.2021847 18.1875 109.3125 C24.89880842 102.97029889 31.6505677 96.67616366 38.44824219 90.42675781 C41.09274565 87.99527917 43.73435641 85.56066944 46.375 83.125 C46.90641602 82.63483398 47.43783203 82.14466797 47.98535156 81.63964844 C52.17091044 77.77470687 56.3371702 73.88939424 60.5 70 C61.75519103 68.82940852 63.01039928 67.65883552 64.265625 66.48828125 C66.76202048 64.15948599 69.25037192 61.82247271 71.734375 59.48046875 C72.90612064 58.38267441 74.07799005 57.28501216 75.25 56.1875 C75.78689453 55.67767578 76.32378906 55.16785156 76.87695312 54.64257812 C79.25351516 52.42547574 80.87465642 51.04178119 84 50 C84.33 49.01 84.66 48.02 85 47 C86.8125 45.24609375 86.8125 45.24609375 89 43.4375 C91.94959179 41.07789673 91.94959179 41.07789673 94 38 C94.66 38 95.32 38 96 38 C96.1871017 52.61220991 96.32806162 67.22426074 96.41449738 81.83742619 C96.45570301 88.62306384 96.51185134 95.40795612 96.60351562 102.19311523 C96.69194305 108.74181246 96.73828187 115.2900264 96.75901794 121.83929253 C96.77379417 124.33723574 96.80264958 126.83513682 96.84584045 129.33275032 C96.90396834 132.83352116 96.91191071 136.33109922 96.90820312 139.83227539 C96.93696533 140.86374191 96.96572754 141.89520844 96.99536133 142.95793152 C96.94811343 147.08420505 96.91248306 149.87133828 94.25915527 153.15327263 C92.24883169 154.92488788 90.19696692 156.46996707 88 158 C81.45397283 163.90652383 75.00528258 169.91884526 68.5625 175.9375 C67.61117187 176.82477783 67.61117187 176.82477783 66.640625 177.72998047 C63.6342633 180.53463984 60.63355907 183.34461191 57.6484375 186.171875 C30.37208686 211.89688577 1.10775239 224.97180489 -36.8203125 224.375 C-60.9419323 223.47994917 -86.30555452 212.93582987 -103.75390625 196.140625 C-106.05210431 193.89003784 -106.05210431 193.89003784 -108.94140625 191.63671875 C-112.20506848 188.94134564 -114.78839531 185.90029721 -117.375 182.5625 C-117.84832764 181.95341797 -118.32165527 181.34433594 -118.80932617 180.71679688 C-134.53225317 160.03279083 -142.17435625 136.68932538 -142.1875 110.875 C-142.19974609 109.63234375 -142.21199219 108.3896875 -142.22460938 107.109375 C-142.27190462 76.9034812 -129.64342176 49.71420745 -108.42822266 28.39794922 C-80.18994689 0.75822836 -38.32234007 -10.43351495 0 0 Z " fill="#FFFEFE" transform="translate(399,103)"/>
<path d="M0 0 C2.45089613 1.917264 4.7969894 3.91406897 7.13671875 5.96484375 C7.91917969 6.59261719 8.70164062 7.22039062 9.5078125 7.8671875 C22.39560752 18.61045343 31.49238758 32.71716486 38.13671875 47.96484375 C38.61625 49.01671875 39.09578125 50.06859375 39.58984375 51.15234375 C46.47359677 67.4079533 47.82822602 84.84401665 48.0546875 102.2890625 C48.07726844 103.73409621 48.07726844 103.73409621 48.10030556 105.20832253 C48.1768932 110.28266338 48.22952848 115.35659286 48.26245117 120.43139648 C48.30151147 125.64302482 48.42944432 130.84872065 48.57593822 136.05827618 C48.67309241 140.10342267 48.70332423 144.14712666 48.71563148 148.19333839 C48.73317834 150.11494401 48.77582876 152.03650251 48.84493065 153.95694542 C49.3342852 168.45104904 49.3342852 168.45104904 45.68719292 172.62295532 C42.13202113 175.50349972 38.22733468 177.40431745 34.0201416 179.14813709 C31.16723167 180.38524141 28.55503457 181.98991035 25.8984375 183.59765625 C23.87447211 184.76306433 21.84971598 185.92710007 19.82421875 187.08984375 C17.57288842 188.38536759 15.32158722 189.68094204 13.0703125 190.9765625 C11.93062012 191.63188965 10.79092773 192.2872168 9.61669922 192.96240234 C4.99031823 195.62343676 0.3688663 198.29299242 -4.25268555 200.96240234 C-7.52244728 202.84990883 -10.79434823 204.7336654 -14.06640625 206.6171875 C-17.56659761 208.63360209 -21.05781853 210.66319224 -24.53515625 212.71875 C-25.19805664 213.10748291 -25.86095703 213.49621582 -26.54394531 213.89672852 C-28.20568393 214.87231983 -29.86285535 215.85567985 -31.51953125 216.83984375 C-32.29296875 217.21109375 -33.06640625 217.58234375 -33.86328125 217.96484375 C-34.52328125 217.63484375 -35.18328125 217.30484375 -35.86328125 216.96484375 C-35.85775049 215.98280613 -35.85775049 215.98280613 -35.852108 214.98092937 C-35.76357133 199.01273371 -35.69748174 183.04462404 -35.65603256 167.0762434 C-35.6354526 159.35388024 -35.60742003 151.63168145 -35.56152344 143.90942383 C-35.52151506 137.1746375 -35.49581529 130.43997028 -35.48692727 123.70506841 C-35.48173603 120.14261165 -35.46963175 116.58049547 -35.44036102 113.01814842 C-35.40786424 109.03042196 -35.40733074 105.04327857 -35.40917969 101.05541992 C-35.38760803 99.30537407 -35.38760803 99.30537407 -35.36560059 97.51997375 C-35.42340465 85.950585 -38.42965452 77.4263303 -46.484375 69.06640625 C-53.18400036 63.14785379 -60.2811023 61.65330051 -68.98046875 61.74609375 C-78.88110254 62.49736136 -85.77834453 67.45635108 -92.25 74.671875 C-97.80047231 82.56080296 -97.67406809 90.7455597 -96.86328125 99.96484375 C-95.03297801 107.94786127 -91.02854769 114.02043126 -84.37109375 118.7265625 C-76.24577217 123.44981854 -68.05352379 124.64930869 -58.86328125 122.96484375 C-54.57328125 120.98484375 -50.28328125 119.00484375 -45.86328125 116.96484375 C-45.86328125 146.00484375 -45.86328125 175.04484375 -45.86328125 204.96484375 C-50.61179489 205.64320284 -54.64624563 206.09273396 -59.35546875 206.09765625 C-60.55558594 206.09894531 -61.75570312 206.10023438 -62.9921875 206.1015625 C-64.22839844 206.09769531 -65.46460938 206.09382812 -66.73828125 206.08984375 C-68.58099609 206.09564453 -68.58099609 206.09564453 -70.4609375 206.1015625 C-102.45081331 206.06727539 -129.01313239 191.81499261 -151.29296875 169.53515625 C-172.47172462 147.1838741 -181.54437103 117.12860834 -181.140625 86.84765625 C-180.13549609 56.37374791 -165.3036792 28.36641323 -143.48828125 7.58984375 C-102.86654459 -27.39650748 -44.00846546 -31.28023261 0 0 Z " fill="#FFFEFE" transform="translate(313.86328125,334.03515625)"/>
<path d="M0 0 C20.73744581 17.59357647 37.04864082 43.16169577 39.86621094 70.67578125 C40.98864255 86.11061205 41.49171549 102.43089894 37.0625 117.375 C36.74539062 118.54804688 36.42828125 119.72109375 36.1015625 120.9296875 C31.51380922 136.3198102 23.87796916 150.50775127 13.0625 162.375 C12.45277344 163.12523437 11.84304687 163.87546875 11.21484375 164.6484375 C-4.63177446 183.82587355 -29.62712601 196.45397194 -53.9375 200.375 C-54.96359375 200.55546875 -55.9896875 200.7359375 -57.046875 200.921875 C-87.55803476 204.47538357 -116.93454811 197.65363197 -141.5625 179 C-146.52856072 174.98621257 -151.24178141 170.69911496 -155.9375 166.375 C-156.42202637 165.93027344 -156.90655273 165.48554688 -157.40576172 165.02734375 C-164.34703094 158.65619475 -171.24381762 152.23744304 -178.12182617 145.7980957 C-178.97417847 145.00085083 -178.97417847 145.00085083 -179.84375 144.1875 C-180.7036705 143.33701332 -180.7036705 143.33701332 -181.58096313 142.46934509 C-183.9732604 140.23923178 -183.9732604 140.23923178 -187.13639832 138.28790283 C-191.90171772 134.98110146 -196.04419445 131.54245316 -197.66719437 125.78767395 C-198.79324654 118.06066076 -198.4280714 110.26530658 -198.20703125 102.484375 C-198.18275379 99.96808644 -198.16426335 97.451736 -198.15129089 94.93536377 C-198.10692708 89.0162225 -198.00476735 83.10034803 -197.87374753 77.18253827 C-197.71334798 69.77460398 -197.64418738 62.36626116 -197.57226562 54.95703125 C-197.4332695 41.76141528 -197.21423354 28.56840988 -196.9375 15.375 C-196.16583496 16.15045166 -195.39416992 16.92590332 -194.59912109 17.72485352 C-191.98158689 20.33110318 -189.29567628 22.82814229 -186.5625 25.3125 C-181.84500247 29.61416271 -177.16257062 33.95137836 -172.5 38.3125 C-165.67264737 44.69598785 -158.812319 51.04270679 -151.9375 57.375 C-144.4421073 64.27889439 -136.96870872 71.20510524 -129.52392578 78.16357422 C-124.98591504 82.40286273 -120.43274716 86.62515104 -115.8581543 90.82495117 C-112.92764463 93.51972937 -110.02369292 96.23863456 -107.14453125 98.98828125 C-91.3402096 114.32966401 -91.3402096 114.32966401 -70.390625 118.75 C-62.16072037 117.8562547 -54.8781931 114.46454254 -49.3359375 108.2734375 C-42.80505469 99.40749044 -41.95366134 90.13163596 -42.9375 79.375 C-44.13231293 75.66630067 -45.77489641 72.60323435 -47.9375 69.375 C-48.535625 68.446875 -49.13375 67.51875 -49.75 66.5625 C-56.25467723 60.05782277 -63.90497505 57.10831274 -73.0625 56.875 C-81.65816472 57.00177972 -88.34396741 59.39393843 -94.87109375 65.05078125 C-100.50355203 71.16080457 -103.22218127 78.37017926 -104.9375 86.375 C-110.96251762 82.28351239 -115.97690386 77.48332763 -121.03125 72.25390625 C-123.83056321 69.4118706 -126.82501798 66.82504698 -129.84033203 64.21606445 C-133.35434465 61.13117864 -136.73335238 57.9055811 -140.125 54.6875 C-141.61546025 53.27949771 -143.10635017 51.87195014 -144.59765625 50.46484375 C-145.32871582 49.77503418 -146.05977539 49.08522461 -146.81298828 48.37451172 C-154.05452566 41.55904503 -161.31061087 34.76030253 -168.9375 28.375 C-167.02369677 16.2637676 -151.19834129 3.41061649 -141.8671875 -3.61425781 C-98.67762369 -34.86858902 -41.42165819 -33.10360471 0 0 Z " fill="#FFFEFE" transform="translate(196.9375,125.625)"/>
<path d="M0 0 C15.84 0 31.68 0 48 0 C48.0093457 6.02080811 48.01869141 12.04161621 48.02832031 18.24487305 C48.06209959 38.14593719 48.11745372 58.04689823 48.18390274 77.94787884 C48.22366157 90.01286216 48.25607013 102.07778055 48.27099609 114.14282227 C48.28402892 124.66236458 48.31103535 135.18176384 48.35461307 145.70122558 C48.37719102 151.26790209 48.39291287 156.83440241 48.39188385 162.40112877 C48.39113508 167.64855241 48.40917297 172.89558707 48.44116783 178.14291 C48.44963543 180.06121228 48.45143828 181.97955834 48.44580269 183.89787102 C48.40670179 199.2628059 49.85888197 212.50202896 60.25 224.625 C75.57809288 237.8628984 93.93367694 238.37268079 113.35717773 238.26074219 C115.56587023 238.24998358 117.77375298 238.2607454 119.98242188 238.2734375 C139.73005313 238.29366513 158.86868699 236.28693171 174.1875 222.5 C184.92551513 211.06640495 188.51237546 195.25193969 188.35400391 179.97460938 C187.89649438 166.59326682 184.43347317 153.80928173 175.125 143.87890625 C161.52995676 131.85828897 143.95761635 129.76994407 126.5625 129.75 C125.53263474 129.74799088 125.53263474 129.74799088 124.48196411 129.74594116 C107.90948337 129.7529225 91.76707745 131.57265092 75.64453125 135.44921875 C73 136 73 136 69 136 C69 121.81 69 107.62 69 93 C88.69324323 88.36629571 88.69324323 88.36629571 97.25 87.3125 C98.18690674 87.19221436 99.12381348 87.07192871 100.08911133 86.94799805 C137.79018286 82.21374839 176.31290892 84.32044262 207.55859375 107.93359375 C224.54811331 122.09643414 233.41336565 143.44935761 236 165 C236.2910755 170.0867764 236.33434903 175.15574171 236.3125 180.25 C236.30926727 181.27530319 236.30926727 181.27530319 236.30596924 182.32131958 C236.17326145 208.55258666 228.77971818 232.21648532 211 252 C210.41347656 252.65742188 209.82695313 253.31484375 209.22265625 253.9921875 C190.85504155 273.44025012 162.22469618 281.44271092 136.26464844 282.28735352 C130.11255336 282.41325831 123.96270685 282.42201366 117.80957031 282.39111328 C114.00549471 282.37502324 110.20248121 282.39105276 106.3984375 282.41015625 C74.95514645 282.4377531 45.44350199 278.51954499 21.82421875 255.91796875 C2.07493138 235.24832624 -0.50770412 206.54458965 -0.34057617 179.37011719 C-0.33972713 177.39674899 -0.34021043 175.42337986 -0.34190369 173.45001221 C-0.34275426 168.16202307 -0.32528282 162.87424371 -0.30418181 157.58630276 C-0.28525629 152.03437336 -0.2836522 146.48243763 -0.28010559 140.93048096 C-0.27083129 130.44797499 -0.24628087 119.9655644 -0.21605712 109.48310018 C-0.1823683 97.53608151 -0.16599091 85.58905798 -0.15097082 73.64200354 C-0.1197265 49.09460419 -0.06477308 24.54733535 0 0 Z " fill="#595959" transform="translate(595,150)"/>
<path d="M0 0 C1.48958326 0.00056568 2.97916707 0.00024449 4.46875 -0.00088501 C8.4699689 -0.00145339 12.47106525 0.01021654 16.47225595 0.02426291 C20.66958238 0.03685703 24.86691234 0.03794755 29.06425476 0.04031372 C36.99348368 0.04650318 44.92265674 0.06287931 52.85186118 0.0830127 C61.88704937 0.10545107 70.92224039 0.116385 79.95744956 0.12640357 C98.52595164 0.1472481 117.09437725 0.18389224 135.6628418 0.22705078 C135.6628418 13.42705078 135.6628418 26.62705078 135.6628418 40.22705078 C131.38855225 40.23639648 127.1142627 40.24574219 122.71044922 40.25537109 C108.57291921 40.28916972 94.43553405 40.34453507 80.29812145 40.41095352 C71.72836702 40.45069023 63.1587037 40.4831099 54.58886719 40.49804688 C47.11564936 40.51109132 39.64263247 40.53812687 32.16952783 40.58166385 C28.21592261 40.6042162 24.26256463 40.61996523 20.30888939 40.61893463 C16.57984167 40.6181843 12.8513392 40.63628271 9.12243271 40.66821861 C7.11713697 40.68066473 5.11174935 40.67368273 3.10643005 40.66590881 C-5.52068813 40.7644256 -14.37750499 41.46055138 -20.8996582 47.66455078 C-21.3740332 48.51017578 -21.8484082 49.35580078 -22.3371582 50.22705078 C-22.7496582 50.94892578 -23.1621582 51.67080078 -23.5871582 52.41455078 C-25.38136129 59.14281236 -25.09880384 65.44844996 -21.59887695 71.53955078 C-18.06855293 76.26122254 -12.93493469 78.12379594 -7.3371582 79.22705078 C-4.03346142 79.49927631 -0.74658835 79.49754662 2.56689453 79.48242188 C4.02217308 79.48785255 4.02217308 79.48785255 5.5068512 79.49339294 C7.60585531 79.50026463 9.70487721 79.50279658 11.80389214 79.50144577 C15.14005825 79.5004756 18.47590647 79.51348393 21.81202698 79.53042603 C31.29506939 79.57652937 40.77807977 79.60126714 50.26123047 79.60791016 C56.07257147 79.61296129 61.88358225 79.63739718 67.69481087 79.67323685 C69.89489815 79.68295629 72.09503133 79.68541033 74.29513359 79.68006516 C94.98654568 79.63218057 113.78998288 81.54031008 129.6003418 96.47705078 C141.34178266 108.98646379 146.06781963 124.77548348 145.8737793 141.69580078 C144.94503252 157.24370973 139.27667191 170.70714501 127.6628418 181.22705078 C124.14433142 183.87228008 120.52286776 186.11645179 116.6628418 188.22705078 C115.94612305 188.62666016 115.2294043 189.02626953 114.4909668 189.43798828 C102.64990114 195.35852111 89.12604031 195.66625305 76.18066406 195.56762695 C74.59226498 195.56677817 73.00386472 195.56726072 71.41546631 195.56895447 C67.15398739 195.56980604 62.89276808 195.55231821 58.63134885 195.5312326 C54.15910784 195.51232399 49.68685917 195.51070429 45.21458435 195.50715637 C36.76831905 195.49787718 28.32217193 195.47332002 19.87595838 195.4431079 C10.25065925 195.40943448 0.6253541 195.39304553 -8.99998939 195.3780216 C-28.77912603 195.34676618 -48.55810092 195.29180651 -68.3371582 195.22705078 C-68.3371582 182.35705078 -68.3371582 169.48705078 -68.3371582 156.22705078 C-63.96675293 156.20723145 -59.59634766 156.18741211 -55.09350586 156.16699219 C-40.64467609 156.10004949 -26.19591751 156.02250874 -11.7471714 155.9395237 C-2.98795937 155.88947414 5.77124366 155.84303054 14.53051758 155.80517578 C22.16811034 155.77215931 29.80563166 155.73227523 37.44314539 155.68426073 C41.48440571 155.65909141 45.52561922 155.63728228 49.56693649 155.62370682 C53.37709267 155.61079911 57.18708751 155.58865251 60.99715424 155.55966759 C62.38941062 155.55065942 63.78169293 155.54491755 65.1739769 155.54283714 C80.41722118 155.77674649 80.41722118 155.77674649 93.6628418 149.22705078 C98.44253478 142.89718709 99.28272097 137.9640612 98.6628418 130.22705078 C97.39573884 124.02039394 94.89608596 120.71588022 89.6628418 117.22705078 C84.46724062 115.00626988 79.75683188 114.93369873 74.20776367 114.93994141 C73.2735257 114.93310837 72.33928772 114.92627533 71.3767395 114.91923523 C69.35357557 114.90567832 67.33037766 114.89660511 65.30717468 114.89152527 C62.09345767 114.88320202 58.88002019 114.86266089 55.66638184 114.83898926 C48.83191036 114.79082562 41.99741043 114.75790201 35.1628418 114.72705078 C27.26558285 114.69124155 19.36845916 114.64901091 11.47132874 114.59111023 C8.32644758 114.5712421 5.18167356 114.56276035 2.03674316 114.55480957 C-20.00427357 114.43774797 -38.82141433 112.13441649 -55.5871582 96.41455078 C-67.18361769 84.23359233 -70.82044559 68.80893937 -70.5480957 52.39892578 C-70.02306067 38.25538943 -64.48044135 26.69946174 -54.80981445 16.51220703 C-39.42882204 2.2975458 -20.08938422 -0.10847933 0 0 Z " fill="#585858" transform="translate(1185.337158203125,236.77294921875)"/>
<path d="M0 0 C2.73331868 0.00315514 5.46554463 -0.02039697 8.19873047 -0.0456543 C37.52978104 -0.15098376 65.24699806 5.55382566 88.49951172 24.31567383 C89.21494141 24.87899414 89.93037109 25.44231445 90.66748047 26.02270508 C108.47182358 40.7276461 118.65888632 63.96042954 120.97216797 86.56958008 C123.11008138 111.92428791 117.53355639 137.21598629 101.80810547 157.60083008 C85.83845151 176.38071079 65.88811276 188.61260069 41.49951172 193.31567383 C40.59966553 193.49300049 39.69981934 193.67032715 38.77270508 193.85302734 C28.06552064 195.67582024 17.38642582 195.65348047 6.55200195 195.63134766 C3.33558933 195.62819692 0.12010762 195.65168837 -3.09619141 195.67700195 C-18.83065794 195.72607434 -34.79051498 195.00488456 -49.75048828 189.62817383 C-50.47880859 189.37471191 -51.20712891 189.12125 -51.95751953 188.86010742 C-63.76301159 184.58189975 -74.01016152 178.56737339 -83.50048828 170.31567383 C-84.09861328 169.86063477 -84.69673828 169.4055957 -85.31298828 168.93676758 C-102.41711185 155.67315324 -112.12973101 132.00957117 -114.81298828 111.06567383 C-117.69168504 84.88969055 -112.10545267 57.94831438 -95.55444336 37.01464844 C-76.56867724 14.27718367 -49.9252737 3.27638682 -20.98114014 0.50799561 C-14.00028741 -0.03322101 -6.99785933 -0.01679486 0 0 Z M-55.50048828 62.31567383 C-66.09848249 75.06988183 -69.50294406 89.2599163 -68.03173828 105.64379883 C-66.04543998 119.37262536 -59.22476657 131.47591546 -48.50048828 140.31567383 C-27.56552337 155.35395695 1.55304764 154.38824201 26.12451172 151.56567383 C41.0206771 149.07432909 55.15165238 142.00655668 64.05419922 129.53833008 C72.74383014 116.17508686 75.25659008 101.68843392 73.03076172 86.01489258 C69.98069386 72.01725974 62.09646672 60.80840376 50.24169922 52.91723633 C39.15677706 46.44313649 28.23920722 44.00291147 15.54248047 44.01489258 C14.00615715 44.00846489 14.00615715 44.00846489 12.438797 44.00190735 C10.28318008 43.99619432 8.1275439 43.9956413 5.97192383 44 C2.70668994 44.00315482 -0.557632 43.97967961 -3.82275391 43.9543457 C-24.13328748 43.89140826 -40.95186528 46.70805228 -55.50048828 62.31567383 Z " fill="#585858" transform="translate(1468.50048828125,236.684326171875)"/>
<path d="M0 0 C0.89047531 -0.00570007 1.78095062 -0.01140015 2.69841003 -0.01727295 C4.57488851 -0.02665427 6.45138295 -0.03322931 8.32788086 -0.03710938 C11.123198 -0.04672106 13.91774816 -0.07777194 16.71289062 -0.109375 C46.18313327 -0.28264244 73.98133929 5.3431482 97.35546875 24.203125 C98.07089844 24.76644531 98.78632812 25.32976562 99.5234375 25.91015625 C115.80133341 39.35437589 126.92156582 61.30949073 129.35546875 82.203125 C129.46503906 83.12738281 129.57460937 84.05164063 129.6875 85.00390625 C132.29491304 110.13936793 127.12526037 136.75401543 111.10546875 156.890625 C109.86361978 158.33517246 108.61382511 159.77293427 107.35546875 161.203125 C106.72253906 162.02683594 106.08960938 162.85054687 105.4375 163.69921875 C92.27031071 179.53443139 70.26299827 189.36417716 50.35546875 193.203125 C49.45562256 193.38045166 48.55577637 193.55777832 47.62866211 193.74047852 C36.92147767 195.56327141 26.24238285 195.54093165 15.40795898 195.51879883 C12.19154636 195.5156481 8.97606465 195.53913955 5.75976562 195.56445312 C-9.97470091 195.61352551 -25.93455795 194.89233573 -40.89453125 189.515625 C-41.62285156 189.26216309 -42.35117187 189.00870117 -43.1015625 188.74755859 C-54.89959646 184.47205368 -65.16717181 178.46078949 -74.64453125 170.203125 C-75.61519531 169.4296875 -76.58585938 168.65625 -77.5859375 167.859375 C-95.09077241 153.25586335 -104.27554508 129.02175082 -106.3671875 106.87109375 C-108.33419229 80.85676286 -101.83523249 55.21262483 -84.64453125 35.203125 C-84.13792969 34.5534375 -83.63132812 33.90375 -83.109375 33.234375 C-67.39216057 13.77128883 -41.59928495 3.86287587 -17.43179321 0.93505859 C-11.60784376 0.31988321 -5.85460048 0.03022949 0 0 Z M-46.64453125 62.203125 C-56.36428134 73.90040582 -60.15897059 86.98748282 -59.58203125 102.140625 C-58.06862577 117.61863557 -51.00116679 130.46057664 -39.12109375 140.421875 C-18.44725629 155.29138585 10.75655111 154.27508654 34.98046875 151.453125 C49.901745 148.95758054 63.79913874 141.86265355 72.98046875 129.640625 C81.91194821 116.36410148 84.0109502 101.39476385 81.89453125 85.80859375 C78.92744958 72.49163306 71.49790174 61.0942426 60.16796875 53.453125 C48.70007359 46.5851655 37.86885518 44.05706806 24.69140625 44 C23.66294586 43.99429993 22.63448547 43.98859985 21.57485962 43.98272705 C19.40131653 43.97330201 17.22775931 43.96675302 15.05419922 43.96289062 C11.76243496 43.95321892 8.47130457 43.92218507 5.1796875 43.890625 C-15.20629116 43.78656053 -32.03111757 46.52599664 -46.64453125 62.203125 Z " fill="#585858" transform="translate(962.64453125,236.796875)"/>
<path d="M0 0 C22.89375 -0.04125 45.7875 -0.0825 69.375 -0.125 C80.170979 -0.15231201 80.170979 -0.15231201 91.18505859 -0.18017578 C100.05395508 -0.18920898 100.05395508 -0.18920898 104.22134399 -0.19088745 C107.09808513 -0.19273172 109.97475054 -0.20014942 112.85147095 -0.21115112 C146.94082689 -0.33559034 180.22020415 0.65979566 206.58984375 25.44140625 C227.51527806 47.65560313 229.63806536 75.6667441 229.390625 104.765625 C229.38314553 107.38262495 229.37746069 109.99963058 229.37347412 112.61663818 C229.36117442 118.74307546 229.32853475 124.86921799 229.28807616 130.99552703 C229.24294628 137.98493313 229.22126923 144.97435533 229.20129442 151.96387148 C229.15978581 166.30943039 229.08660241 180.65464405 229 195 C213.49 195 197.98 195 182 195 C181.97812622 190.1116333 181.97812622 190.1116333 181.95581055 185.12451172 C181.9053074 174.31581854 181.83868498 163.50726706 181.76428509 152.6987133 C181.71969799 146.15022912 181.68041635 139.60180548 181.65356445 133.05322266 C181.62741498 126.72478899 181.58693085 120.39658979 181.53681374 114.06830215 C181.5202235 111.66282204 181.50866069 109.25730145 181.50238609 106.85177231 C181.76144181 80.57555606 181.76144181 80.57555606 170.03125 57.71875 C160.11883905 48.09365531 146.74049488 44.71473887 133.27929688 44.68115234 C131.85049572 44.66592246 131.85049572 44.66592246 130.3928299 44.6503849 C127.3348067 44.61995161 124.27687562 44.60265106 121.21875 44.5859375 C119.32063004 44.56898638 117.42251762 44.55116792 115.52441406 44.5324707 C108.51636251 44.46948523 101.50816855 44.42324232 94.5 44.375 C70.9875 44.189375 70.9875 44.189375 47 44 C47 93.83 47 143.66 47 195 C31.49 195 15.98 195 0 195 C0 130.65 0 66.3 0 0 Z " fill="#585858" transform="translate(1620,237)"/>
<path d="M0 0 C2.11420152 0.00186789 4.22840348 0.00329004 6.34260559 0.00428772 C11.87449362 0.00808372 17.40635488 0.01788873 22.93823242 0.0289917 C29.5930857 0.04107968 36.247948 0.04562196 42.90280914 0.05144501 C52.98340172 0.06110234 63.06393572 0.08027924 73.14453125 0.09765625 C73.14453125 14.61765625 73.14453125 29.13765625 73.14453125 44.09765625 C62.74179688 44.15373047 62.74179688 44.15373047 52.12890625 44.2109375 C47.71742376 44.24123782 43.30598062 44.27239926 38.89453125 44.30664062 C31.90301572 44.36082696 24.911578 44.4119423 17.91992188 44.4440918 C12.27877037 44.47023167 6.63788232 44.51070906 0.99689484 44.56084251 C-1.14787247 44.57743921 -3.29268528 44.58899805 -5.43750763 44.59527016 C-25.07668109 44.65847555 -41.75421105 46.45374262 -56.66796875 60.74609375 C-66.42103888 71.23064414 -71.53698587 85.25429817 -71.1015625 99.59765625 C-69.60203952 114.83090559 -64.28814758 127.7092221 -52.85546875 138.09765625 C-35.44071182 151.53926864 -15.04242553 151.38226375 5.95703125 151.51171875 C7.90715306 151.53047861 9.85726717 151.55005539 11.80737305 151.57040405 C16.88374234 151.62122321 21.96013781 151.66111402 27.03662109 151.69854736 C33.15770907 151.74603027 39.27867234 151.80740803 45.3996582 151.86639404 C54.64789747 151.95399218 63.89612033 152.02419479 73.14453125 152.09765625 C73.14453125 166.28765625 73.14453125 180.47765625 73.14453125 195.09765625 C49.449138 195.21798268 49.449138 195.21798268 39.23632812 195.24414062 C32.30681339 195.26197416 25.37741919 195.28291667 18.44799805 195.32397461 C12.85233057 195.35691689 7.25679261 195.37458167 1.66103554 195.38228798 C-0.45846275 195.38776963 -2.57795512 195.3984708 -4.69739723 195.41484642 C-21.00282079 195.535652 -37.5817508 194.98948043 -53.10546875 189.41015625 C-53.83378906 189.15669434 -54.56210938 188.90323242 -55.3125 188.64208984 C-67.10633675 184.36810596 -77.39244401 178.3651743 -86.85546875 170.09765625 C-87.53867188 169.55753906 -88.221875 169.01742187 -88.92578125 168.4609375 C-107.01340658 153.81350758 -116.10905085 130.23737666 -118.57421875 107.6953125 C-119.94026852 90.22125924 -117.75797468 73.25624464 -110.85546875 57.09765625 C-110.22705078 55.59525391 -110.22705078 55.59525391 -109.5859375 54.0625 C-99.24590544 31.44554227 -79.0821043 15.57604564 -56.16259766 6.88818359 C-37.61486732 0.53288721 -19.38925282 -0.05051755 0 0 Z " fill="#585858" transform="translate(2086.85546875,236.90234375)"/>
<path d="M0 0 C15.51 0 31.02 0 47 0 C47 64.35 47 128.7 47 195 C31.49 195 15.98 195 0 195 C0 130.65 0 66.3 0 0 Z " fill="#595959" transform="translate(1888,237)"/>
<path d="M0 0 C5.26270281 3.22815276 7.41264437 6.83969819 9.4375 12.625 C10.72276121 18.61523529 9.98871437 24.37982514 8 30.125 C4.64269978 35.04904033 1.09654495 38.1271726 -4.5 40.25 C-14.00543629 42.04034431 -24.25233095 41.97959928 -32.65234375 36.7734375 C-37.10469977 33.39879113 -39.28833348 29.79923699 -40.37890625 24.36328125 C-41.21608788 18.04476308 -41.14978568 12.48439095 -37.875 6.875 C-28.88533657 -3.48093386 -12.41347393 -5.76207521 0 0 Z " fill="#585858" transform="translate(1926.875,170.125)"/>
</svg>
