<?xml version="1.0" encoding="UTF-8"?>
<svg version="1.1" xmlns="http://www.w3.org/2000/svg" width="1536" height="1024">
<path d="M0 0 C506.88 0 1013.76 0 1536 0 C1536 337.92 1536 675.84 1536 1024 C1029.12 1024 522.24 1024 0 1024 C0 686.08 0 348.16 0 0 Z " fill="#F9F8FD" transform="translate(0,0)"/>
<path d="M0 0 C0.70243835 -0.00261841 1.40487671 -0.00523682 2.12860107 -0.00793457 C13.05795532 -0.0122858 22.78811026 0.97018949 33.25 4.3125 C34.5628853 4.65954699 35.87806908 4.99800503 37.1953125 5.328125 C43.22003696 6.88688328 47.53017418 8.11709927 52.25 12.3125 C50.27 12.9725 48.29 13.6325 46.25 14.3125 C47.84714844 15.13041016 47.84714844 15.13041016 49.4765625 15.96484375 C67.32514098 25.19429879 83.40024051 35.56584344 97.25 50.3125 C97.25 50.9725 97.25 51.6325 97.25 52.3125 C97.91 52.3125 98.57 52.3125 99.25 52.3125 C100.98269068 54.50882661 102.59774462 56.70368668 104.1875 59 C104.63029297 59.62583984 105.07308594 60.25167969 105.52929688 60.89648438 C112.25 70.46171759 112.25 70.46171759 112.25 73.3125 C112.91 73.3125 113.57 73.3125 114.25 73.3125 C124.6590363 93.50603043 128.47286947 110.83937991 128.3125 133.5625 C128.30798828 134.79613281 128.30347656 136.02976562 128.29882812 137.30078125 C128.28718487 140.30474069 128.27083376 143.30859266 128.25 146.3125 C128.91 146.3125 129.57 146.3125 130.25 146.3125 C130.32516846 145.22980835 130.32516846 145.22980835 130.40185547 144.12524414 C130.63306799 140.87437511 130.87883319 137.62476934 131.125 134.375 C131.20363281 133.23869141 131.28226563 132.10238281 131.36328125 130.93164062 C131.44707031 129.85205078 131.53085937 128.77246094 131.6171875 127.66015625 C131.72716064 126.15980835 131.72716064 126.15980835 131.83935547 124.62915039 C132.04262451 123.48240845 132.04262451 123.48240845 132.25 122.3125 C132.91 121.9825 133.57 121.6525 134.25 121.3125 C135.89572858 155.70822726 127.47325205 182.79990293 104.625 208.625 C103.17219 210.19263691 101.71433509 211.75562329 100.25 213.3125 C99.42628906 214.23289062 99.42628906 214.23289062 98.5859375 215.171875 C94.92343455 219.10500625 90.82780326 222.18506 86.4375 225.25 C85.86161133 225.65226807 85.28572266 226.05453613 84.69238281 226.46899414 C80.50795119 229.3125 80.50795119 229.3125 78.25 229.3125 C80.21536214 234.48860226 82.59303764 238.3114857 86.3125 242.4375 C87.30315466 243.57215091 88.29137802 244.70892848 89.27734375 245.84765625 C89.77476074 246.4214502 90.27217773 246.99524414 90.78466797 247.58642578 C94.81100436 252.32921124 98.5068248 257.34594558 102.25 262.3125 C103.39275391 263.8284375 103.39275391 263.8284375 104.55859375 265.375 C106.04195761 267.34939072 107.52250575 269.32590056 109 271.3046875 C110.59753831 273.44028559 112.20090909 275.57039105 113.8125 277.6953125 C114.23072021 278.24823975 114.64894043 278.80116699 115.07983398 279.37084961 C116.25108607 280.91883241 117.4243168 282.46531753 118.59765625 284.01171875 C120.25 286.3125 120.25 286.3125 120.25 287.3125 C111.4966125 287.70902531 102.74637621 288.00969243 93.98592186 288.19330692 C89.91606798 288.28151317 85.85241492 288.40072057 81.78613281 288.5949707 C53.41201068 289.914918 53.41201068 289.914918 46.10180664 283.78881836 C42.32120115 279.71974018 39.70955948 275.26051297 37.25 270.3125 C36.33726857 268.61432004 35.41545497 266.92099019 34.48461914 265.23266602 C34.07691788 264.47599136 33.66921661 263.71931671 33.24916077 262.93971252 C30.58227446 258.48755958 28.02403527 255.48786466 23.25 253.3125 C12.23515333 251.09171328 0.2916512 252.17386438 -10.83703613 252.99208069 C-20.62485855 253.67592908 -29.32953675 251.85362131 -38.75 249.3125 C-39.82121094 249.04695312 -40.89242187 248.78140625 -41.99609375 248.5078125 C-62.6003367 243.1245074 -81.38527263 233.06375368 -96.75 218.3125 C-98.0584403 217.22426687 -99.37081897 216.14074785 -100.6875 215.0625 C-122.72650848 195.73940974 -136.63812466 165.3801175 -138.75 136.3125 C-140.42481277 102.60689307 -131.81300298 73.28942966 -109 47.9375 C-108.28328125 47.16664063 -107.5665625 46.39578125 -106.828125 45.6015625 C-105.39729566 44.0254986 -104.02426962 42.39564215 -102.703125 40.7265625 C-85.87775407 19.93040403 -57.94837675 8.63823358 -32.75 2.3125 C-32.13125 2.13920166 -31.5125 1.96590332 -30.875 1.78735352 C-20.94605787 -0.43137264 -10.12304016 0.0365269 0 0 Z " fill="#283CA5" transform="translate(445.75,343.6875)"/>
<path d="M0 0 C10.8961674 7.9262734 18.70076903 17.40438745 24.8125 29.375 C25.28888916 30.29212769 25.28888916 30.29212769 25.77490234 31.2277832 C33.57019032 47.26865119 34.18959364 67.81254201 28.8125 84.6875 C24.72140717 96.43502537 18.04835315 105.47689024 9.375 114.3125 C8.69953125 115.01246094 8.0240625 115.71242188 7.328125 116.43359375 C-1.74732796 125.18492339 -13.16656383 130.35358118 -25.2109375 133.62109375 C-27.55565309 134.08145893 -27.55565309 134.08145893 -28.625 135.3125 C-26.6759375 135.498125 -26.6759375 135.498125 -24.6875 135.6875 C-22.47265625 135.8984375 -22.47265625 135.8984375 -20.625 136.3125 C-20.295 136.9725 -19.965 137.6325 -19.625 138.3125 C-20.95462072 138.80187429 -22.28899425 139.27833581 -23.625 139.75 C-24.3675 140.01683594 -25.11 140.28367187 -25.875 140.55859375 C-47.87971456 146.59113623 -72.83464326 141.88338151 -92.625 131.3125 C-107.65788504 122.55939657 -119.11979919 111.3065269 -126.625 95.5 C-126.91584473 94.89019287 -127.20668945 94.28038574 -127.50634766 93.65209961 C-129.37333265 89.49124481 -130.16557081 85.7976775 -130.625 81.3125 C-128.625 82.3125 -128.625 82.3125 -127.7734375 84.81640625 C-127.51820313 85.82574219 -127.26296875 86.83507812 -127 87.875 C-126.73960937 88.88691406 -126.47921875 89.89882813 -126.2109375 90.94140625 C-126.01757812 91.72386719 -125.82421875 92.50632812 -125.625 93.3125 C-124.635 93.3125 -123.645 93.3125 -122.625 93.3125 C-122.3775 93.951875 -122.13 94.59125 -121.875 95.25 C-120.80937567 97.49991541 -120.80937567 97.49991541 -118.5 98.0625 C-117.88125 98.145 -117.2625 98.2275 -116.625 98.3125 C-117.76550747 94.70089301 -119.08053426 91.23063218 -120.5625 87.75 C-124.61084874 77.45476107 -125.90892334 68.19259678 -126 57.1875 C-126.01385742 56.18638184 -126.02771484 55.18526367 -126.04199219 54.15380859 C-125.97909023 44.07128696 -123.54370552 35.1854917 -118.9375 26.25 C-118.41422119 25.22604126 -118.41422119 25.22604126 -117.88037109 24.18139648 C-108.36783601 6.12381136 -92.2499653 -6.13159082 -73.109375 -12.6796875 C-47.12784694 -20.19452409 -22.07560107 -15.1356666 0 0 Z " fill="#FCFAFD" transform="translate(492.625,409.6875)"/>
<path d="M0 0 C1.50554443 0.01135986 1.50554443 0.01135986 3.04150391 0.02294922 C15.56895941 0.30034722 25.95263161 3.43603378 35.3671875 12.02734375 C45.0134837 22.22554247 43.625 32.02135054 43.625 46.4375 C22.175 46.4375 0.725 46.4375 -21.375 46.4375 C-17.51196041 55.7469011 -17.51196041 55.7469011 -9.4375 60.6875 C2.29447095 65.11192181 16.13492064 64.7963398 28.046875 61.19140625 C30.88633192 60.36108021 33.70202408 59.87765573 36.625 59.4375 C40.02698926 63.48748722 42.625 68.07376649 42.625 73.4375 C23.53048547 81.56194787 -0.52710216 84.01280541 -20.31933594 76.72119141 C-31.47762477 72.10543404 -39.66025179 65.75642735 -44.375 54.4375 C-47.39180127 44.2438873 -48.60811813 31.53375119 -43.8203125 21.70703125 C-36.57542876 10.3306057 -27.20257889 4.41388796 -14.33642578 1.04614258 C-9.54768268 0.06194336 -4.87569365 -0.05191291 0 0 Z " fill="#D3477F" transform="translate(1076.375,483.5625)"/>
<path d="M0 0 C8.58 0 17.16 0 26 0 C26.04898438 3.36058594 26.09796875 6.72117187 26.1484375 10.18359375 C26.20254118 13.460248 26.25981176 16.73683279 26.31738281 20.01342773 C26.35552223 22.27997604 26.39040057 24.54658177 26.421875 26.81323242 C26.4678534 30.08272746 26.52579266 33.35183225 26.5859375 36.62109375 C26.59748871 37.62458359 26.60903992 38.62807343 26.62094116 39.66197205 C26.59067068 50.44175435 26.59067068 50.44175435 31.4375 59.5 C39.59395963 64.27451295 52.69337433 63.08378704 61.69140625 61.24609375 C66.4507583 59.59488998 69.71228289 57.89789146 73 54 C73.61137955 51.42928704 73.61137955 51.42928704 73.54589844 48.58886719 C73.56561707 47.50804871 73.58533569 46.42723022 73.60565186 45.31365967 C73.60688049 44.15312073 73.60810913 42.99258179 73.609375 41.796875 C73.62591125 40.60394836 73.64244751 39.41102173 73.65948486 38.1819458 C73.7080753 34.3712454 73.72936138 30.5609444 73.75 26.75 C73.77815027 24.16664645 73.80807635 21.5833116 73.83984375 19 C73.91718107 12.66648093 73.95760217 6.33423532 74 0 C82.58 0 91.16 0 100 0 C100 26.4 100 52.8 100 80 C93.07 80 86.14 80 79 80 C77.68 77.69 76.36 75.38 75 73 C74.5153125 73.32613281 74.030625 73.65226563 73.53125 73.98828125 C63.71818853 80.38564248 53.46601343 83.39593041 41.75 83.3125 C40.91807129 83.30686035 40.08614258 83.3012207 39.22900391 83.29541016 C27.40145935 83.06376734 18.1058234 80.48585223 9.25390625 72.40625 C3.00763076 65.80170933 -0.13495414 56.68073827 -0.11352539 47.68066406 C-0.11344986 46.61986633 -0.11337433 45.5590686 -0.11329651 44.46612549 C-0.10813522 43.32746033 -0.10297394 42.18879517 -0.09765625 41.015625 C-0.09553383 39.25952911 -0.09553383 39.25952911 -0.09336853 37.46795654 C-0.0877709 33.72861171 -0.0752188 29.98932674 -0.0625 26.25 C-0.0574847 23.71484461 -0.05292184 21.17968829 -0.04882812 18.64453125 C-0.03865313 12.42964588 -0.01907708 6.21488996 0 0 Z " fill="#1332A1" transform="translate(617,481)"/>
<path d="M0 0 C7.59 0 15.18 0 23 0 C23.33 22.11 23.66 44.22 24 67 C28.29 62.71 32.58 58.42 37 54 C41.0625 50.4375 41.0625 50.4375 42.984375 48.8984375 C45.1918836 46.94230897 45.1918836 46.94230897 47.203125 43.9140625 C50.85417924 39.04670064 53.94753972 35.51553287 60.18310547 34.46240234 C68.13785991 33.9490878 76.06399814 34.33951329 84 35 C80.03627475 39.75085867 75.90205218 44.23613112 71.5078125 48.58984375 C70.91700897 49.17923233 70.32620544 49.76862091 69.71749878 50.37586975 C67.85569596 52.23213727 65.99042255 54.08487085 64.125 55.9375 C62.85132989 57.20614672 61.57789029 58.4750249 60.3046875 59.74414062 C57.20577957 62.83210554 54.10375699 65.91690929 51 69 C52.73616929 72.69247839 54.89450174 75.2559743 57.6875 78.25 C58.60078875 79.23779303 59.51354769 80.22607617 60.42578125 81.21484375 C61.27527344 82.13394531 62.12476563 83.05304688 63 84 C65.36318408 86.64120574 67.68306479 89.3181931 70 92 C70.45697266 92.52529297 70.91394531 93.05058594 71.38476562 93.59179688 C72.96811788 95.41255138 74.54689245 97.23719876 76.125 99.0625 C76.62821777 99.64040283 77.13143555 100.21830566 77.64990234 100.8137207 C81.01755307 104.72305644 84.05338175 108.76356168 87 113 C82.83429326 113.23402847 78.67028954 113.37498061 74.5 113.5 C73.32695313 113.56703125 72.15390625 113.6340625 70.9453125 113.703125 C62.36150351 113.89601958 62.36150351 113.89601958 58.52709961 111.37255859 C56.48337493 109.35385911 54.72893593 107.29138656 53 105 C52.19691406 104.06414062 51.39382813 103.12828125 50.56640625 102.1640625 C49.90511719 101.32617188 49.24382813 100.48828125 48.5625 99.625 C44.23428548 94.23358296 39.67338493 89.0932162 35 84 C30.58147214 85.58386091 28.27263863 87.63891167 25 91 C24.34 91 23.68 91 23 91 C23 98.26 23 105.52 23 113 C15.41 113 7.82 113 0 113 C0 75.71 0 38.42 0 0 Z " fill="#6341A6" transform="translate(891,448)"/>
<path d="M0 0 C1.29502441 0.00088623 2.59004883 0.00177246 3.92431641 0.00268555 C12.89680236 0.11412041 20.54762504 0.83332681 28.875 4.375 C30.050625 4.83712891 30.050625 4.83712891 31.25 5.30859375 C32.81331366 5.94674327 34.35047933 6.64903778 35.875 7.375 C35.15528381 11.12845656 33.54387798 14.23591969 31.8125 17.625 C31.26464844 18.70265625 30.71679688 19.7803125 30.15234375 20.890625 C29.73082031 21.71046875 29.30929687 22.5303125 28.875 23.375 C25.12897575 22.89678414 21.71420979 22.33018961 18.0625 21.3125 C7.3353622 18.90211398 -6.51675622 18.51838498 -16.125 24.375 C-20.1287823 27.95607222 -22.98271032 31.33629216 -23.36328125 36.7890625 C-23.8819506 47.8020842 -23.8819506 47.8020842 -19.125 57.375 C-12.47837724 63.74193814 -4.56767671 64.76376238 4.3125 64.75 C5.17907227 64.75128906 6.04564453 64.75257813 6.93847656 64.75390625 C15.42256151 64.61721649 22.75333967 62.78141788 30.875 60.375 C34.34 67.305 34.34 67.305 37.875 74.375 C34.6656677 77.5843323 33.06578687 78.18534046 28.8125 79.4375 C27.74902344 79.75847656 26.68554688 80.07945312 25.58984375 80.41015625 C16.95282611 82.65341951 8.94037204 83.7372477 0 83.6875 C-1.58989746 83.67904053 -1.58989746 83.67904053 -3.21191406 83.67041016 C-17.16844459 83.45334678 -31.08201172 79.95427023 -41.59765625 70.1328125 C-51.10218753 59.19409364 -52.25953172 46.66877806 -51.42382812 32.75537109 C-50.40022675 24.60168366 -45.10936214 16.6849796 -38.86328125 11.49609375 C-26.22386519 2.72380982 -15.32428004 -0.01861407 0 0 Z " fill="#4440AC" transform="translate(837.125,479.625)"/>
<path d="M0 0 C7.59 0 15.18 0 23 0 C23 37.29 23 74.58 23 113 C15.41 113 7.82 113 0 113 C0 75.71 0 38.42 0 0 Z " fill="#AE4A9E" transform="translate(990,448)"/>
<path d="M0 0 C0.95648437 0.01353516 1.91296875 0.02707031 2.8984375 0.04101562 C5.22420926 0.0759022 7.54968515 0.1296883 9.875 0.1875 C9.875 5.7975 9.875 11.4075 9.875 17.1875 C7.503125 17.290625 5.13125 17.39375 2.6875 17.5 C-8.50218807 18.13383354 -18.85619648 19.25530083 -27.23925781 27.18823242 C-29.95705544 31.51088181 -29.72779995 35.28835349 -29.734375 40.30078125 C-29.75091125 41.27033249 -29.76744751 42.23988373 -29.78448486 43.23881531 C-29.83294745 46.32594143 -29.85433225 49.41257499 -29.875 52.5 C-29.90316109 54.59702997 -29.93308871 56.694037 -29.96484375 58.79101562 C-30.04202251 63.92340328 -30.08255881 69.05423784 -30.125 74.1875 C-37.715 74.1875 -45.305 74.1875 -53.125 74.1875 C-53.125 50.0975 -53.125 26.0075 -53.125 1.1875 C-45.535 1.1875 -37.945 1.1875 -30.125 1.1875 C-29.795 3.8275 -29.465 6.4675 -29.125 9.1875 C-28.66351562 8.78917969 -28.20203125 8.39085937 -27.7265625 7.98046875 C-27.07429688 7.45066406 -26.42203125 6.92085938 -25.75 6.375 C-25.12351562 5.85292969 -24.49703125 5.33085937 -23.8515625 4.79296875 C-16.30897126 0.35170084 -8.57710498 -0.23490667 0 0 Z " fill="#E44272" transform="translate(1188.125,486.8125)"/>
<path d="M0 0 C8.25 0 16.5 0 25 0 C25 26.4 25 52.8 25 80 C16.75 80 8.5 80 0 80 C0 53.6 0 27.2 0 0 Z " fill="#2635A9" transform="translate(743,481)"/>
<path d="M0 0 C2.43746854 2.43746854 2.98148996 4.4368928 4.125 7.6875 C8.77939762 20.01757088 15.69876347 36.46584231 27 44 C27 44.99 27 45.98 27 47 C28.485 47.495 28.485 47.495 30 48 C31.38576923 49.62332967 32.72641268 51.28724465 34 53 C34 52.34 34 51.68 34 51 C33.505 50.505 33.01 50.01 32.5 49.5 C32.005 49.005 31.51 48.51 31 48 C31 47.34 31 46.68 31 46 C31.66 46 32.32 46 33 46 C33.763125 46.94875 34.52625 47.8975 35.3125 48.875 C43.46052285 58.6407901 54.93163595 65.08581796 66 71 C67.03833984 71.58007812 67.03833984 71.58007812 68.09765625 72.171875 C92.80257318 85.42022606 123.50692288 89.72926852 151.02734375 85.5390625 C154.0068195 85.23661915 156.11751077 85.17253464 159 86 C162.16325321 88.70981759 164.43227305 91.84482527 166.77734375 95.27050781 C169.03409934 98.46277151 171.54552776 101.45896938 174 104.5 C178.84048027 110.52144082 178.84048027 110.52144082 180 114 C180.66 114 181.32 114 182 114 C182.6192334 115.14307617 183.2384668 116.28615234 183.87646484 117.46386719 C185.62038037 119.98122649 186.46538243 120.8693406 189.47589111 121.60510254 C192.66406089 121.76067522 195.78708926 121.70733954 198.9765625 121.578125 C200.13876312 121.56110535 201.30096375 121.54408569 202.49838257 121.52655029 C206.20877778 121.46754188 209.91584078 121.36149585 213.625 121.25 C217.34093831 121.15974207 221.0565434 121.07955618 224.77304077 121.01629639 C227.08496118 120.97475875 229.39665114 120.91636391 231.70767212 120.83966064 C233.27477432 120.80542999 233.27477432 120.80542999 234.87353516 120.77050781 C235.7933316 120.74273254 236.71312805 120.71495728 237.66079712 120.68634033 C240 121 240 121 241.82040405 122.38934326 C243 124 243 124 243 126 C235.55151691 126.3971133 228.10414854 126.69749226 220.64743614 126.88080692 C217.18233404 126.96890156 213.72455414 127.08782122 210.26367188 127.2824707 C186.1678593 128.60195187 186.1678593 128.60195187 179.16430664 122.47631836 C175.40626254 118.37431504 172.60174443 113.89623202 170 109 C169.07447273 107.30520266 168.14617933 105.61191289 167.21508789 103.92016602 C166.81020645 103.16349136 166.40532501 102.40681671 165.98817444 101.62721252 C163.3388887 97.16708477 160.76987505 94.17346899 156 92 C144.98515333 89.77921328 133.0416512 90.86136438 121.91296387 91.67958069 C112.12514145 92.36342908 103.42046325 90.54112131 94 88 C92.92878906 87.73445312 91.85757813 87.46890625 90.75390625 87.1953125 C70.1496633 81.8120074 51.36472737 71.75125368 36 57 C34.6915597 55.91176687 33.37918103 54.82824785 32.0625 53.75 C19.919379 43.10330401 11.51852913 29.53402911 4.5625 15.125 C4.22001221 14.42342773 3.87752441 13.72185547 3.5246582 12.99902344 C1.48170377 8.62059472 0.44630413 4.81505588 0 0 Z " fill="#1B1340" transform="translate(313,505)"/>
<path d="M0 0 C0.70243835 -0.00261841 1.40487671 -0.00523682 2.12860107 -0.00793457 C13.05795532 -0.0122858 22.78811026 0.97018949 33.25 4.3125 C34.5628853 4.65954699 35.87806908 4.99800503 37.1953125 5.328125 C43.22003696 6.88688328 47.53017418 8.11709927 52.25 12.3125 C51.30125 12.621875 50.3525 12.93125 49.375 13.25 C46.38919592 14.18644742 46.38919592 14.18644742 44.25 15.3125 C41.90257326 14.6219022 39.62061612 13.86701494 37.3125 13.0625 C2.37555627 1.71421018 -35.16925006 6.10865484 -67.75 22.3125 C-70.39725402 23.77293141 -72.96492411 25.29596265 -75.515625 26.91796875 C-77.77059376 28.3253531 -80.07532198 29.53324052 -82.4375 30.75 C-86.36173623 32.88860493 -89.15282372 35.49030136 -92.18359375 38.74609375 C-94.14019117 40.70269117 -96.38797506 41.89528504 -98.75 43.3125 C-99.00394531 43.8796875 -99.25789063 44.446875 -99.51953125 45.03125 C-101.29368493 48.32047459 -103.90944662 50.62109047 -106.625 53.125 C-107.15480469 53.63998047 -107.68460937 54.15496094 -108.23046875 54.68554688 C-109.8046875 56.14453125 -109.8046875 56.14453125 -112.75 58.3125 C-115.1328125 58.13671875 -115.1328125 58.13671875 -116.75 57.3125 C-112.06398483 51.26328041 -107.27554533 45.60437799 -101.75 40.3125 C-100.986875 39.52875 -100.22375 38.745 -99.4375 37.9375 C-98.550625 37.07125 -97.66375 36.205 -96.75 35.3125 C-96.1003125 34.66667969 -95.450625 34.02085937 -94.78125 33.35546875 C-77.4521599 16.86395134 -55.57801995 8.12043803 -32.75 2.3125 C-32.11843994 2.13541504 -31.48687988 1.95833008 -30.83618164 1.77587891 C-20.91649002 -0.42746512 -10.11113344 0.03648393 0 0 Z " fill="#2C64B9" transform="translate(445.75,343.6875)"/>
<path d="M0 0 C0.33 0 0.66 0 1 0 C1.33549966 4.80882847 0.57164869 6.9996576 -2 11 C-2.77848055 13.02804165 -3.48140857 15.06811907 -4.15625 17.1328125 C-5.11760576 19.26025719 -6.33914333 20.38239481 -8 22 C-9.12058776 24.42703545 -9.12058776 24.42703545 -10.15625 26.890625 C-10.4346875 27.58671875 -10.713125 28.2828125 -11 29 C-11.39445313 30.09054687 -11.78890625 31.18109375 -12.1953125 32.3046875 C-14.07476724 36.64934116 -17.01007156 39.61367835 -20.375 42.875 C-20.98698242 43.47779785 -21.59896484 44.0805957 -22.22949219 44.70166016 C-37.10403948 59 -37.10403948 59 -43 59 C-41.03463786 64.17610226 -38.65696236 67.9989857 -34.9375 72.125 C-33.94684534 73.25965091 -32.95862198 74.39642848 -31.97265625 75.53515625 C-31.22653076 76.39584717 -31.22653076 76.39584717 -30.46533203 77.27392578 C-26.43899564 82.01671124 -22.7431752 87.03344558 -19 92 C-18.23816406 93.010625 -17.47632813 94.02125 -16.69140625 95.0625 C-15.20804239 97.03689072 -13.72749425 99.01340056 -12.25 100.9921875 C-10.65246169 103.12778559 -9.04909091 105.25789105 -7.4375 107.3828125 C-7.01927979 107.93573975 -6.60105957 108.48866699 -6.17016602 109.05834961 C-4.99891393 110.60633241 -3.8256832 112.15281753 -2.65234375 113.69921875 C-1 116 -1 116 -1 117 C-4.45472138 117.50048278 -7.55961334 117.66296502 -11 117 C-13.89335689 114.72005648 -15.85542377 111.97029542 -18 109 C-19.11375 107.948125 -19.11375 107.948125 -20.25 106.875 C-22 105 -22 105 -23.31640625 102.2421875 C-25.1060377 98.79579747 -27.15711402 96.18953787 -29.6875 93.25 C-30.58412959 92.19729227 -31.47995198 91.14389651 -32.375 90.08984375 C-32.8184375 89.57019043 -33.261875 89.05053711 -33.71875 88.51513672 C-38.72154314 82.59910504 -43.45719517 76.45315859 -48.1640625 70.30078125 C-50.69432692 67.12987541 -53.34574346 64.06732182 -56 61 C-54.9378125 60.35933594 -53.875625 59.71867188 -52.78125 59.05859375 C-45.35830115 54.53321874 -38.21964961 50.14111868 -32 44 C-31.48953125 43.52691406 -30.9790625 43.05382812 -30.453125 42.56640625 C-28.15037114 40.38655217 -27.02121349 39.06364048 -26 36 C-25.0206121 34.97980427 -24.02104551 33.97850195 -23 33 C-22.505 32.01 -22.505 32.01 -22 31 C-21.21625 30.566875 -20.4325 30.13375 -19.625 29.6875 C-16.67109615 27.78856181 -15.70586459 26.00557094 -14 23 C-13.34 23 -12.68 23 -12 23 C-11.72929688 22.28585937 -11.45859375 21.57171875 -11.1796875 20.8359375 C-9.99054986 17.9772821 -8.62284429 15.33353708 -7.125 12.625 C-6.5990625 11.67238281 -6.073125 10.71976563 -5.53125 9.73828125 C-3.70885895 6.47936256 -1.8679602 3.23300805 0 0 Z " fill="#EC4E86" transform="translate(567,514)"/>
<path d="M0 0 C1.0377356 0.55216187 1.0377356 0.55216187 2.09643555 1.11547852 C33.80946949 18.29201386 59.88280989 45.16909288 70.51098633 80.26635742 C74.5823717 94.08497143 74.5823717 94.08497143 74.5625 101.4375 C74.56636719 102.88382813 74.56636719 102.88382813 74.5703125 104.359375 C74.4375 106.6875 74.4375 106.6875 73.4375 107.6875 C73.22234055 109.29503245 73.06664141 110.91062588 72.9375 112.52734375 C72.855 113.50767578 72.7725 114.48800781 72.6875 115.49804688 C72.605 116.52994141 72.5225 117.56183594 72.4375 118.625 C72.27457074 120.65525131 72.10807894 122.68522084 71.9375 124.71484375 C71.8653125 125.61968506 71.793125 126.52452637 71.71875 127.45678711 C71.4375 129.6875 71.4375 129.6875 70.4375 131.6875 C69.7775 131.6875 69.1175 131.6875 68.4375 131.6875 C68.407771 130.59417358 68.407771 130.59417358 68.37744141 129.47875977 C67.69253555 105.4559707 67.0505802 83.97814703 55.3203125 62.47265625 C54.4375 60.6875 54.4375 60.6875 54.4375 58.6875 C53.7775 58.6875 53.1175 58.6875 52.4375 58.6875 C51.17578125 56.81640625 51.17578125 56.81640625 49.75 54.25 C47.10255141 49.65455221 44.12936503 45.58673034 40.7578125 41.5 C39.4375 39.6875 39.4375 39.6875 39.4375 37.6875 C38.7775 37.6875 38.1175 37.6875 37.4375 37.6875 C36.203125 36.359375 36.203125 36.359375 34.6875 34.4375 C25.16560973 23.32535589 13.19753887 14.7210824 0.4375 7.6875 C-0.2225 7.6875 -0.8825 7.6875 -1.5625 7.6875 C-1.5625 7.0275 -1.5625 6.3675 -1.5625 5.6875 C-2.16578125 5.51734375 -2.7690625 5.3471875 -3.390625 5.171875 C-8.07313372 3.75201752 -11.41561149 2.65531594 -14.5625 -1.3125 C-8.66018198 -3.66581131 -5.57159205 -3.11696974 0 0 Z " fill="#DAE1FD" transform="translate(505.5625,358.3125)"/>
<path d="M0 0 C2 1 2 1 2.8515625 3.50390625 C3.10679687 4.51324219 3.36203125 5.52257812 3.625 6.5625 C3.88539063 7.57441406 4.14578125 8.58632813 4.4140625 9.62890625 C4.60742188 10.41136719 4.80078125 11.19382812 5 12 C5.99 12 6.98 12 8 12 C8.2784375 12.928125 8.2784375 12.928125 8.5625 13.875 C9.036875 14.57625 9.51125 15.2775 10 16 C11.03125 16.185625 12.0625 16.37125 13.125 16.5625 C17.12587176 17.49712988 18.38905998 19.5930643 20.625 22.9375 C31.23371428 38.46443048 48.838272 48.02642045 67 52 C74.31290699 53.20550588 81.60937823 53.08563872 89 53 C91.24995347 52.97463412 93.49996081 52.9535526 95.75 52.9375 C96.73484375 52.92589844 97.7196875 52.91429687 98.734375 52.90234375 C101 53 101 53 102 54 C104.0587768 54.27953219 106.11728432 54.44734351 108.1875 54.62109375 C108.785625 54.74613281 109.38375 54.87117187 110 55 C110.33 55.66 110.66 56.32 111 57 C109.67037928 57.48937429 108.33600575 57.96583581 107 58.4375 C106.2575 58.70433594 105.515 58.97117187 104.75 59.24609375 C82.74528544 65.27863623 57.79035674 60.57088151 38 50 C22.96711496 41.24689657 11.50520081 29.9940269 4 14.1875 C3.70915527 13.57769287 3.41831055 12.96788574 3.11865234 12.33959961 C1.25166735 8.17874481 0.45942919 4.4851775 0 0 Z " fill="#FB84B0" transform="translate(362,491)"/>
<path d="M0 0 C0.98226562 0.94939453 0.98226562 0.94939453 1.984375 1.91796875 C1.984375 2.57796875 1.984375 3.23796875 1.984375 3.91796875 C3.469375 4.41296875 3.469375 4.41296875 4.984375 4.91796875 C20.12971782 21.70629748 26.28536504 40.56635337 26.484375 62.85546875 C26.49509033 63.53754395 26.50580566 64.21961914 26.5168457 64.92236328 C26.61379622 73.06816535 26.29079048 78.93774404 21.984375 85.91796875 C21.71625 87.05234375 21.448125 88.18671875 21.171875 89.35546875 C19.15066849 95.41908828 15.26892798 100.31392091 10.046875 103.98046875 C9.36625 104.28984375 8.685625 104.59921875 7.984375 104.91796875 C8.60622496 101.64776952 9.7896204 99.57757448 11.671875 96.85546875 C21.4547413 80.55858735 23.66539542 61.37634904 20.3515625 42.77734375 C19.47613313 39.32294678 18.37588979 36.19768633 16.984375 32.91796875 C16.72124512 32.28632813 16.45811523 31.6546875 16.18701172 31.00390625 C7.57691487 10.81135313 -6.98511263 -3.1092027 -27.1953125 -11.609375 C-44.822116 -18.57299503 -62.40694433 -18.0027089 -81.015625 -16.08203125 C-61.33491476 -36.41876516 -17.11504829 -14.04497607 0 0 Z " fill="#1F3487" transform="translate(502.015625,412.08203125)"/>
<path d="M0 0 C3.70996984 1.91671976 7.10206463 4.20412926 9 8 C9.5880376 13.14112877 10.17453731 18.31516132 6.8125 22.5625 C1.95729858 26.77034123 -2.15505596 27.55560454 -8.48828125 27.4609375 C-12.69543548 26.68886254 -15.29300984 24.19540734 -18 21 C-20.096618 16.80676401 -19.55339733 11.55488569 -19 7 C-13.91264117 0.12519077 -8.18664297 -1.31431819 0 0 Z " fill="#2C63D1" transform="translate(761,439)"/>
<path d="M0 0 C0.79543213 0.00354492 1.59086426 0.00708984 2.41040039 0.01074219 C8.39238347 0.18075839 12.71500048 1.13989904 17.0625 5.5 C17.7225 6.11875 18.3825 6.7375 19.0625 7.375 C20.0625 9.5 20.0625 9.5 20.0625 16.5 C6.2025 16.5 -7.6575 16.5 -21.9375 16.5 C-20.94726564 9.56835949 -20.70501958 8.06023612 -15.9375 3.5 C-10.53276289 0.65896172 -6.06677536 -0.0483865 0 0 Z " fill="#FCF7FB" transform="translate(1076.9375,499.5)"/>
<path d="M0 0 C2.43746854 2.43746854 2.98148996 4.4368928 4.125 7.6875 C8.77939762 20.01757088 15.69876347 36.46584231 27 44 C27 44.99 27 45.98 27 47 C28.485 47.495 28.485 47.495 30 48 C31.38576923 49.62332967 32.72641268 51.28724465 34 53 C34 52.34 34 51.68 34 51 C33.505 50.505 33.01 50.01 32.5 49.5 C32.005 49.005 31.51 48.51 31 48 C31 47.34 31 46.68 31 46 C31.66 46 32.32 46 33 46 C33.763125 46.94875 34.52625 47.8975 35.3125 48.875 C43.46052285 58.6407901 54.93163595 65.08581796 66 71 C67.03833984 71.58007812 67.03833984 71.58007812 68.09765625 72.171875 C86.77504324 82.18788033 107.14287551 85.48892575 128 87 C128 87.33 128 87.66 128 88 C118.94706663 88.13534286 110.02140429 87.75741925 101 87 C100.67 87.66 100.34 88.32 100 89 C76.0243679 85.30315852 53.4292096 73.73330649 36 57 C34.6915597 55.91176687 33.37918103 54.82824785 32.0625 53.75 C19.919379 43.10330401 11.51852913 29.53402911 4.5625 15.125 C4.22001221 14.42342773 3.87752441 13.72185547 3.5246582 12.99902344 C1.48170377 8.62059472 0.44630413 4.81505588 0 0 Z " fill="#1A1461" transform="translate(313,505)"/>
<path d="M0 0 C0.70243835 -0.00261841 1.40487671 -0.00523682 2.12860107 -0.00793457 C13.05795532 -0.0122858 22.78811026 0.97018949 33.25 4.3125 C34.5628853 4.65954699 35.87806908 4.99800503 37.1953125 5.328125 C43.22003696 6.88688328 47.53017418 8.11709927 52.25 12.3125 C51.30125 12.621875 50.3525 12.93125 49.375 13.25 C46.38919592 14.18644742 46.38919592 14.18644742 44.25 15.3125 C41.90254446 14.62189372 39.62038729 13.8677889 37.3125 13.0625 C21.30372042 7.81419713 4.99417522 6.79566526 -11.75 6.3125 C-12.08 5.6525 -12.41 4.9925 -12.75 4.3125 C-12.42 3.6525 -12.09 2.9925 -11.75 2.3125 C-16.09184202 2.49714366 -16.09184202 2.49714366 -19.75 4.3125 C-21.37139437 4.43744616 -22.99884122 4.48821624 -24.625 4.5 C-25.50929688 4.51417969 -26.39359375 4.52835937 -27.3046875 4.54296875 C-29.75 4.3125 -29.75 4.3125 -32.75 2.3125 C-22.38735285 -0.63304696 -10.68251315 0.03854564 0 0 Z " fill="#5486CE" transform="translate(445.75,343.6875)"/>
<path d="M0 0 C0.33 0 0.66 0 1 0 C1.33549966 4.80882847 0.57164869 6.9996576 -2 11 C-2.77848055 13.02804165 -3.48140857 15.06811907 -4.15625 17.1328125 C-5.11760576 19.26025719 -6.33914333 20.38239481 -8 22 C-9.12058776 24.42703545 -9.12058776 24.42703545 -10.15625 26.890625 C-10.4346875 27.58671875 -10.713125 28.2828125 -11 29 C-11.39445313 30.09054687 -11.78890625 31.18109375 -12.1953125 32.3046875 C-14.07482359 36.64947142 -17.01025865 39.61337317 -20.375 42.875 C-20.98843262 43.47997314 -21.60186523 44.08494629 -22.23388672 44.70825195 C-28.0194027 50.27523692 -34.26721141 54.65533728 -41 59 C-41.67289063 59.58007812 -42.34578125 60.16015625 -43.0390625 60.7578125 C-45.6701475 62.42451575 -47.20806866 62.12777954 -50.25 61.6875 C-51.14203125 61.56761719 -52.0340625 61.44773437 -52.953125 61.32421875 C-53.62859375 61.21722656 -54.3040625 61.11023438 -55 61 C-51.83163949 58.55756457 -48.53967564 56.36921123 -45.1875 54.1875 C-40.48619046 51.06473235 -36.11331517 47.86103184 -32 44 C-31.05125 43.113125 -30.1025 42.22625 -29.125 41.3125 C-26.80891058 39.10849159 -26.80891058 39.10849159 -26 36 C-25.0206121 34.97980427 -24.02104551 33.97850195 -23 33 C-22.505 32.01 -22.505 32.01 -22 31 C-21.21625 30.566875 -20.4325 30.13375 -19.625 29.6875 C-16.67109615 27.78856181 -15.70586459 26.00557094 -14 23 C-13.34 23 -12.68 23 -12 23 C-11.72929688 22.28585937 -11.45859375 21.57171875 -11.1796875 20.8359375 C-9.99054986 17.9772821 -8.62284429 15.33353708 -7.125 12.625 C-6.5990625 11.67238281 -6.073125 10.71976563 -5.53125 9.73828125 C-3.70885895 6.47936256 -1.8679602 3.23300805 0 0 Z " fill="#E60C5D" transform="translate(567,514)"/>
<path d="M0 0 C4.57699168 4.02904197 6.96337422 8.24396447 9.5 13.75 C9.88800781 14.57967285 10.27601563 15.4093457 10.67578125 16.26416016 C15.65359222 27.22491701 20.15783964 39.59933358 20.125 51.75 C20.12886719 53.19632812 20.12886719 53.19632812 20.1328125 54.671875 C20 57 20 57 19 58 C18.78484055 59.60753245 18.62914141 61.22312588 18.5 62.83984375 C18.4175 63.82017578 18.335 64.80050781 18.25 65.81054688 C18.1675 66.84244141 18.085 67.87433594 18 68.9375 C17.83707074 70.96775131 17.67057894 72.99772084 17.5 75.02734375 C17.4278125 75.93218506 17.355625 76.83702637 17.28125 77.76928711 C17 80 17 80 16 82 C15.34 82 14.68 82 14 82 C13.98018066 81.27111572 13.96036133 80.54223145 13.93994141 79.79125977 C14.020564 55.02131241 14.020564 55.02131241 8.63671875 31.0859375 C7.87521815 28.59120547 7.82835383 26.35433197 7.75 23.75 C7.37536877 17.56422858 4.67951204 13.15920081 1.49609375 7.9453125 C-0.03001739 4.94090571 -0.33547847 3.30598784 0 0 Z " fill="#EF6DBA" transform="translate(560,408)"/>
<path d="M0 0 C-1 3 -1 3 -4.17578125 4.7265625 C-5.55227008 5.36461627 -6.93135896 5.99707999 -8.3125 6.625 C-23.98844551 14.13700957 -35.58992212 24.68803449 -44 40 C-44.79009767 41.37590217 -45.58157229 42.75101543 -46.375 44.125 C-46.91125 45.07375 -47.4475 46.0225 -48 47 C-48.33 46.34 -48.66 45.68 -49 45 C-49.66 45 -50.32 45 -51 45 C-50.83751887 37.68834927 -47.02270719 32.8910312 -43 27 C-42.360625 25.9275 -41.72125 24.855 -41.0625 23.75 C-37.64757887 19.19677183 -33.46836129 14.8227871 -28 13 C-28 12.34 -28 11.68 -28 11 C-27.17886719 10.59007812 -26.35773438 10.18015625 -25.51171875 9.7578125 C-23.0121883 8.5066571 -20.51490926 7.25155955 -18.01953125 5.9921875 C-16.6172012 5.28643112 -15.21485724 4.58070235 -13.8125 3.875 C-13.10158203 3.51535156 -12.39066406 3.15570313 -11.65820312 2.78515625 C-3.67526384 -1.22508795 -3.67526384 -1.22508795 0 0 Z " fill="#12307E" transform="translate(419,395)"/>
<path d="M0 0 C1.32 0 2.64 0 4 0 C4 0.66 4 1.32 4 2 C5.62212059 2.52973311 7.24781584 3.04853107 8.875 3.5625 C10.23238281 3.99755859 10.23238281 3.99755859 11.6171875 4.44140625 C13.9980027 5.26747878 13.9980027 5.26747878 16 4 C18.22319141 5.04286802 20.34853664 6.13729998 22.5 7.3125 C27.52547036 9.95371265 32.03453333 11.84270962 37.71875 12.61328125 C40 13 40 13 42.703125 14.03125 C46.96312981 15.28300497 50.83836276 15.25509767 55.25 15.1875 C56.47203125 15.1865332 56.47203125 15.1865332 57.71875 15.18554688 C61.99490388 15.26347623 61.99490388 15.26347623 66 14 C68.87910588 13.76725791 71.74146495 13.58027243 74.625 13.4375 C75.42679687 13.39431641 76.22859375 13.35113281 77.0546875 13.30664062 C79.0362511 13.20048543 81.01810271 13.09973145 83 13 C83.495 13.99 83.495 13.99 84 15 C82.67037928 15.48937429 81.33600575 15.96583581 80 16.4375 C79.2575 16.70433594 78.515 16.97117187 77.75 17.24609375 C55.66141294 23.30162969 30.88895015 18.48631284 11 8 C7.2153483 5.83059125 3.49274406 3.61955805 0 1 C0 0.67 0 0.34 0 0 Z " fill="#E08BBD" transform="translate(389,533)"/>
<path d="M0 0 C0.41765625 0.5671875 0.8353125 1.134375 1.265625 1.71875 C2.4274303 3.2468903 3.62638177 4.74744716 4.859375 6.21875 C5.48328125 6.9715625 6.1071875 7.724375 6.75 8.5 C7.38421875 9.2528125 8.0184375 10.005625 8.671875 10.78125 C10 13 10 13 9.58203125 15.0234375 C9.29392578 16.00183594 9.29392578 16.00183594 9 17 C9.73436278 19.11753669 9.73436278 19.11753669 10.9375 21.125 C13 24.83050847 13 24.83050847 13 27 C13.99 27 14.98 27 16 27 C16.33 28.32 16.66 29.64 17 31 C17.66 31 18.32 31 19 31 C19.391875 32.19625 19.78375 33.3925 20.1875 34.625 C21.76788235 38.89507155 23.92300655 41.6735206 27 45 C26.505 45.99 26.505 45.99 26 47 C19.70843138 40.32022821 13.91084253 33.45624844 8.37890625 26.140625 C3.33647537 19.48362266 -1.88470924 13.00994455 -7.45703125 6.7890625 C-9.06710689 4.92218999 -10.54231967 2.98734796 -12 1 C-11.21753906 1.01160156 -10.43507813 1.02320313 -9.62890625 1.03515625 C-8.61699219 1.04417969 -7.60507812 1.05320312 -6.5625 1.0625 C-5.04849609 1.07990234 -5.04849609 1.07990234 -3.50390625 1.09765625 C-1.05978933 1.28612676 -1.05978933 1.28612676 0 0 Z " fill="#F789A5" transform="translate(523,574)"/>
<path d="M0 0 C0.33 0.99 0.66 1.98 1 3 C1.66 3 2.32 3 3 3 C4.17831098 6.42714564 3.7774504 8.2922373 2.60546875 11.67578125 C0.33997038 19.42902069 0.43290864 27.17382824 0.3125 35.1875 C0.27924951 36.72724115 0.24475301 38.26695592 0.20898438 39.80664062 C0.12497888 43.53756651 0.05776018 47.26856456 0 51 C-0.99 51 -1.98 51 -3 51 C-3 50.34 -3 49.68 -3 49 C-3.66 49 -4.32 49 -5 49 C-9.51245879 33.47994509 -6.00606241 14.58615156 0 0 Z " fill="#203595" transform="translate(367,437)"/>
<path d="M0 0 C3.4038609 1.24906896 6.14024435 2.6785214 9.0625 4.8125 C24.0538164 15.02253276 40.42498933 17.19480677 58.0625 17.0625 C59.21427734 17.05798828 60.36605469 17.05347656 61.55273438 17.04882812 C64.36854518 17.03714426 67.18424398 17.02076281 70 17 C70.495 18.485 70.495 18.485 71 20 C70.37351562 20.06058594 69.74703125 20.12117187 69.1015625 20.18359375 C68.28429687 20.26738281 67.46703125 20.35117187 66.625 20.4375 C65.40683594 20.55931641 65.40683594 20.55931641 64.1640625 20.68359375 C61.95727195 20.89090114 61.95727195 20.89090114 60 22 C57.11193183 22.15231191 54.26412603 22.23150959 51.375 22.25 C50.59253906 22.270625 49.81007813 22.29125 49.00390625 22.3125 C43.2953153 22.35036793 39.26577359 21.17644553 34 19 C32.50836617 18.7215294 31.00767269 18.48408215 29.5 18.3125 C24.5143642 17.40039919 20.31047741 15.43804188 15.8125 13.1875 C15.14734375 12.85596924 14.4821875 12.52443848 13.796875 12.18286133 C1.60550041 5.88570127 1.60550041 5.88570127 0.30786133 1.84448242 C0.20626709 1.23580322 0.10467285 0.62712402 0 0 Z " fill="#FC78A2" transform="translate(393,527)"/>
<path d="M0 0 C8.51559076 3.6661655 14.66143397 12.52318815 20.125 19.75 C20.6104126 20.37543701 21.0958252 21.00087402 21.59594727 21.64526367 C24.57689302 25.7081304 25.14935132 27.88132299 25 33 C26.5028461 36.21684511 26.5028461 36.21684511 28.5 39.375 C31.53290476 44.70241622 32.83179847 47.93975401 32 54 C29.54963723 51.54963723 28.73959002 49.26913961 27.4375 46.0625 C27.00308594 45.00160156 26.56867187 43.94070313 26.12109375 42.84765625 C25.36152662 40.91830281 24.65569405 38.96708216 24 37 C23.34 37 22.68 37 22 37 C20.5625 34.953125 20.5625 34.953125 19 32.25 C18.484375 31.36828125 17.96875 30.4865625 17.4375 29.578125 C16.22849521 27.4098012 15.08486923 25.23232706 14 23 C16 23 16 23 17.625 24.5 C18.07875 24.995 18.5325 25.49 19 26 C11.48140367 15.09146364 11.48140367 15.09146364 2.1875 5.875 C1.1046875 4.946875 1.1046875 4.946875 0 4 C0 2.68 0 1.36 0 0 Z " fill="#F18CCF" transform="translate(536,380)"/>
<path d="M0 0 C0.33 0 0.66 0 1 0 C1.33549966 4.80882847 0.57164869 6.9996576 -2 11 C-2.77848055 13.02804165 -3.48140857 15.06811907 -4.15625 17.1328125 C-5.11760576 19.26025719 -6.33914333 20.38239481 -8 22 C-9.12058776 24.42703545 -9.12058776 24.42703545 -10.15625 26.890625 C-10.4346875 27.58671875 -10.713125 28.2828125 -11 29 C-11.57621094 30.62421875 -11.57621094 30.62421875 -12.1640625 32.28125 C-14.11930003 36.8161474 -17.35697315 39.87093887 -20.875 43.25 C-21.48730469 43.86101563 -22.09960938 44.47203125 -22.73046875 45.1015625 C-25.94081409 48.25003823 -28.98242244 50.89191748 -33 53 C-32.70110558 49.86160854 -31.98321619 48.98471963 -29.6015625 46.81640625 C-28.61929688 46.07261719 -27.63703125 45.32882812 -26.625 44.5625 C-22.8278019 41.6820397 -20.07514928 39.3408735 -18 35 C-18 34.01 -18 33.02 -18 32 C-18.99 32 -19.98 32 -21 32 C-21.268125 32.804375 -21.53625 33.60875 -21.8125 34.4375 C-22.204375 35.283125 -22.59625 36.12875 -23 37 C-24.485 37.495 -24.485 37.495 -26 38 C-26 36 -26 36 -24.5625 34.5 C-24.046875 34.005 -23.53125 33.51 -23 33 C-22.67 32.34 -22.34 31.68 -22 31 C-21.21625 30.566875 -20.4325 30.13375 -19.625 29.6875 C-16.67109615 27.78856181 -15.70586459 26.00557094 -14 23 C-13.34 23 -12.68 23 -12 23 C-11.72929688 22.28585937 -11.45859375 21.57171875 -11.1796875 20.8359375 C-9.99054986 17.9772821 -8.62284429 15.33353708 -7.125 12.625 C-6.5990625 11.67238281 -6.073125 10.71976563 -5.53125 9.73828125 C-3.70885895 6.47936256 -1.8679602 3.23300805 0 0 Z " fill="#B71877" transform="translate(567,514)"/>
<path d="M0 0 C2.43746854 2.43746854 2.98148996 4.4368928 4.125 7.6875 C8.77939762 20.01757088 15.69876347 36.46584231 27 44 C27 44.99 27 45.98 27 47 C28.485 47.495 28.485 47.495 30 48 C31.38576923 49.62332967 32.72641268 51.28724465 34 53 C34 52.34 34 51.68 34 51 C33.505 50.505 33.01 50.01 32.5 49.5 C32.005 49.005 31.51 48.51 31 48 C31 47.34 31 46.68 31 46 C31.66 46 32.32 46 33 46 C33.78375 46.969375 34.5675 47.93875 35.375 48.9375 C39.74224295 54.2655364 45.43168783 58.02649568 51 62 C49.35 63.32 47.7 64.64 46 66 C45.3709375 65.43152344 44.741875 64.86304688 44.09375 64.27734375 C43.2378125 63.50519531 42.381875 62.73304688 41.5 61.9375 C40.58089844 61.10605469 39.66179687 60.27460937 38.71484375 59.41796875 C36.53279694 57.47453425 34.31503722 55.60916274 32.0625 53.75 C19.919379 43.10330401 11.51852913 29.53402911 4.5625 15.125 C4.22001221 14.42342773 3.87752441 13.72185547 3.5246582 12.99902344 C1.48170377 8.62059472 0.44630413 4.81505588 0 0 Z " fill="#0D1B5E" transform="translate(313,505)"/>
<path d="M0 0 C1.48242034 0.00503176 2.96484236 0.00959166 4.44726562 0.01367188 C8.0273795 0.0245293 11.60742843 0.04169865 15.1875 0.0625 C14.8575 1.0525 14.5275 2.0425 14.1875 3.0625 C9.7325 3.5575 9.7325 3.5575 5.1875 4.0625 C5.1875 4.7225 5.1875 5.3825 5.1875 6.0625 C-0.7525 6.0625 -6.6925 6.0625 -12.8125 6.0625 C-13.1425 5.4025 -13.4725 4.7425 -13.8125 4.0625 C-13.4825 3.4025 -13.1525 2.7425 -12.8125 2.0625 C-17.15434202 2.24714366 -17.15434202 2.24714366 -20.8125 4.0625 C-22.43389437 4.18744616 -24.06134122 4.23821624 -25.6875 4.25 C-26.57179688 4.26417969 -27.45609375 4.27835937 -28.3671875 4.29296875 C-30.8125 4.0625 -30.8125 4.0625 -33.8125 2.0625 C-23.07052596 -0.97677826 -11.08415589 -0.0664022 0 0 Z " fill="#4078C9" transform="translate(446.8125,343.9375)"/>
<path d="M0 0 C0.66 0 1.32 0 2 0 C2.33 0.66 2.66 1.32 3 2 C3.66 2 4.32 2 5 2 C5.83725216 5.64138242 6.13509204 9.01594496 6.125 12.75 C6.12757813 13.71421875 6.13015625 14.6784375 6.1328125 15.671875 C6 18 6 18 5 19 C4.78484055 20.60753245 4.62914141 22.22312588 4.5 23.83984375 C4.4175 24.82017578 4.335 25.80050781 4.25 26.81054688 C4.1675 27.84244141 4.085 28.87433594 4 29.9375 C3.83707074 31.96775131 3.67057894 33.99772084 3.5 36.02734375 C3.4278125 36.93218506 3.355625 37.83702637 3.28125 38.76928711 C3 41 3 41 2 43 C1.34 43 0.68 43 0 43 C-0.16878778 38.16218258 -0.32921127 33.32418341 -0.48217773 28.48583984 C-0.53526551 26.84286193 -0.59056478 25.19995382 -0.64819336 23.55712891 C-0.73104142 21.18407238 -0.80570627 18.81087146 -0.87890625 16.4375 C-0.90594131 15.71320801 -0.93297638 14.98891602 -0.96083069 14.24267578 C-1.10027071 9.38481034 -0.70308783 4.81035172 0 0 Z " fill="#CD45A4" transform="translate(574,447)"/>
<path d="M0 0 C0.69037354 0.36665771 1.38074707 0.73331543 2.09204102 1.11108398 C12.48160158 6.73069189 22.31047088 13.17822472 31.4375 20.6875 C30.7775 22.0075 30.1175 23.3275 29.4375 24.6875 C28.75945313 24.10742188 28.08140625 23.52734375 27.3828125 22.9296875 C21.34125631 17.85879685 15.32189609 13.51918223 8.4375 9.6875 C7.47070312 9.11515625 6.50390625 8.5428125 5.5078125 7.953125 C4.53585937 7.39109375 3.56390625 6.8290625 2.5625 6.25 C1.67820312 5.73566406 0.79390625 5.22132813 -0.1171875 4.69140625 C-2.95237334 3.52744018 -3.7150304 3.93846683 -6.5625 4.6875 C-8.703125 3.7265625 -8.703125 3.7265625 -10.8125 2.3125 C-11.51890625 1.85101563 -12.2253125 1.38953125 -12.953125 0.9140625 C-13.48421875 0.50929688 -14.0153125 0.10453125 -14.5625 -0.3125 C-14.5625 -0.6425 -14.5625 -0.9725 -14.5625 -1.3125 C-8.65988676 -3.66592902 -5.57200024 -3.11658935 0 0 Z " fill="#AFB6FA" transform="translate(505.5625,358.3125)"/>
<path d="M0 0 C1.54141411 -0.00855011 1.54141411 -0.00855011 3.1139679 -0.01727295 C5.27819803 -0.02669002 7.44244229 -0.03324379 9.60668945 -0.03710938 C12.92489146 -0.04687238 16.24248852 -0.07794981 19.56054688 -0.109375 C21.66536091 -0.1159001 23.77017936 -0.1211525 25.875 -0.125 C26.86876144 -0.1373468 27.86252289 -0.1496936 28.88639832 -0.16241455 C29.80778091 -0.15941345 30.72916351 -0.15641235 31.6784668 -0.15332031 C32.48865768 -0.15696594 33.29884857 -0.16061157 34.1335907 -0.16436768 C36.74946591 0.29238117 37.65105222 1.1094107 39.23828125 3.203125 C39.23828125 3.863125 39.23828125 4.523125 39.23828125 5.203125 C27.83463067 5.31104598 16.44871703 5.23046538 5.05078125 4.828125 C4.0254126 4.79726807 3.00004395 4.76641113 1.94360352 4.73461914 C-4.46594502 4.48358153 -10.51596807 3.66755091 -16.76171875 2.203125 C-16.76171875 1.873125 -16.76171875 1.543125 -16.76171875 1.203125 C-11.16941248 0.03221938 -5.68649697 0.02446815 0 0 Z " fill="#5E1244" transform="translate(516.76171875,625.796875)"/>
<path d="M0 0 C0.33 0 0.66 0 1 0 C1.33 2.31 1.66 4.62 2 7 C2.33 7 2.66 7 3 7 C3.1964631 10.68368313 2.80783851 12.99849271 1.09375 16.2578125 C0.47765869 17.43670044 0.47765869 17.43670044 -0.15087891 18.6394043 C-0.59608887 19.45965088 -1.04129883 20.27989746 -1.5 21.125 C-1.94907715 21.96651611 -2.3981543 22.80803223 -2.86083984 23.67504883 C-6.41086936 30.20225933 -10.33615245 36.20275933 -15 42 C-16.40318642 37.79044073 -14.88224523 35.90391604 -13 32 C-12.34 31.01 -11.68 30.02 -11 29 C-10.34 29 -9.68 29 -9 29 C-8.80664062 28.39671875 -8.61328125 27.7934375 -8.4140625 27.171875 C-8.15367187 26.37265625 -7.89328125 25.5734375 -7.625 24.75 C-7.36976563 23.96109375 -7.11453125 23.1721875 -6.8515625 22.359375 C-6 20 -6 20 -4.91015625 17.86328125 C-3.22418161 14.4117366 -3.82003423 11.53989731 -5 8 C-3.63817703 4.82241307 -2.45140787 2.45140787 0 0 Z " fill="#42369A" transform="translate(571,504)"/>
<path d="M0 0 C1.66666667 1.66666667 3.33333333 3.33333333 5 5 C5.8971875 5.8353125 5.8971875 5.8353125 6.8125 6.6875 C8 8 8 8 8 10 C8.66 10 9.32 10 10 10 C11.2890625 11.4609375 11.2890625 11.4609375 12.625 13.375 C13.07101562 14.00148438 13.51703125 14.62796875 13.9765625 15.2734375 C15 17 15 17 15 19 C22.70103844 19.88774347 30.38017805 20.28782899 38.125 20.5625 C39.27226563 20.60568359 40.41953125 20.64886719 41.6015625 20.69335938 C44.40095143 20.79833646 47.20041215 20.90049465 50 21 C50 21.33 50 21.66 50 22 C44.79031979 22.34928232 39.58758734 22.60142419 34.36889648 22.76904297 C32.59978503 22.8389505 30.83146817 22.93413561 29.06518555 23.05615234 C14.97509921 24.00425541 14.97509921 24.00425541 10.08453369 20.70959473 C3.6795895 14.77504215 0.56180858 8.66226262 0 0 Z " fill="#2D1745" transform="translate(485,609)"/>
<path d="M0 0 C0.33 0 0.66 0 1 0 C1.23074219 1.02738281 1.46148437 2.05476563 1.69921875 3.11328125 C3.49078759 10.80911643 5.45961705 17.80683266 9.14453125 24.86328125 C10 27 10 27 9 30 C6.5625 29.25 6.5625 29.25 4 28 C3.1875 25.875 3.1875 25.875 3 24 C2.01 24 1.02 24 0 24 C-4.40774487 12.47835991 -4.40774487 12.47835991 -5 7 C-4.34 7 -3.68 7 -3 7 C-2.34 7.66 -1.68 8.32 -1 9 C-0.67 6.03 -0.34 3.06 0 0 Z " fill="#B74DAA" transform="translate(367,479)"/>
<path d="M0 0 C4.15390798 -0.4153908 6.3714307 -0.40121445 9.9375 1.875 C10.99133652 2.88326521 12.0077581 3.93106307 13 5 C13.69867188 5.73992188 14.39734375 6.47984375 15.1171875 7.2421875 C20.01842975 12.84111547 22 16.52738761 22 24 C17.62406278 20.80804579 14.48200429 17.17329123 11.1875 12.9375 C10.68541016 12.31294922 10.18332031 11.68839844 9.66601562 11.04492188 C6 6.37137543 6 6.37137543 6 3 C3.69 3 1.38 3 -1 3 C-0.67 2.01 -0.34 1.02 0 0 Z " fill="#1F1340" transform="translate(464,592)"/>
<path d="M0 0 C4.86330309 1.98363442 9.28765015 4.24327512 13.8125 6.9375 C19.3592264 10.18959408 24.91604239 12.869213 31 15 C31 15.33 31 15.66 31 16 C28.95775363 15.88485851 26.91619841 15.75742674 24.875 15.625 C23.73804688 15.55539062 22.60109375 15.48578125 21.4296875 15.4140625 C15.200468 14.6620155 10.85519826 12.50090642 5.6875 9 C4.63949219 8.29875 3.59148437 7.5975 2.51171875 6.875 C0 5 0 5 -1 3 C-0.67 2.01 -0.34 1.02 0 0 Z " fill="#0E155A" transform="translate(361,567)"/>
<path d="M0 0 C0 0.33 0 0.66 0 1 C-3.98851356 1.73103634 -7.83512322 2.15700239 -11.88671875 2.28125 C-13.5428418 2.33732422 -13.5428418 2.33732422 -15.23242188 2.39453125 C-16.37259766 2.42933594 -17.51277344 2.46414063 -18.6875 2.5 C-26.82664461 2.7527394 -34.89853042 3.15913705 -43 4 C-32.81225193 -6.52733967 -13.24901278 -2.02717135 0 0 Z " fill="#162F79" transform="translate(464,392)"/>
<path d="M0 0 C0.66 0.33 1.32 0.66 2 1 C1.401875 2.0725 0.80375 3.145 0.1875 4.25 C-2.49403193 9.58453692 -3.74242206 15.19271333 -5 21 C-5.17490967 21.77158447 -5.34981934 22.54316895 -5.5300293 23.33813477 C-6.01566515 26.0887258 -6.12939754 28.63038915 -6.1328125 31.421875 C-6.13410156 32.44796875 -6.13539063 33.4740625 -6.13671875 34.53125 C-6.13285156 35.5934375 -6.12898438 36.655625 -6.125 37.75 C-6.12886719 38.79671875 -6.13273437 39.8434375 -6.13671875 40.921875 C-6.12908229 47.03104643 -5.79833882 52.94276259 -5 59 C-5.99 59.495 -5.99 59.495 -7 60 C-10.97667709 39.80889549 -12.00929263 18.01393895 0 0 Z " fill="#248ED5" transform="translate(368,432)"/>
<path d="M0 0 C8.58 0 17.16 0 26 0 C26 15.51 26 31.02 26 47 C25.67 47 25.34 47 25 47 C25 31.82 25 16.64 25 1 C14.11 1.495 14.11 1.495 3 2 C2.04482467 4.865526 1.84945802 6.76521321 1.79467773 9.74682617 C1.77473251 10.70759567 1.75478729 11.66836517 1.73423767 12.6582489 C1.71752518 13.69270645 1.70081268 14.727164 1.68359375 15.79296875 C1.66281265 16.85413406 1.64203156 17.91529938 1.62062073 19.00862122 C1.55518762 22.40151437 1.49626907 25.7944855 1.4375 29.1875 C1.39430886 31.48633622 1.35069438 33.78516453 1.30664062 36.08398438 C1.1995126 41.7225736 1.09773449 47.36124056 1 53 C0.67 53 0.34 53 0 53 C0 35.51 0 18.02 0 0 Z " fill="#3A67BC" transform="translate(617,481)"/>
<path d="M0 0 C5.25020948 -0.18104171 9.03875144 0.08315397 14 2 C17.81673233 3.26070822 21.63600371 3.12690327 25.609375 3.09765625 C26.33618469 3.0962413 27.06299438 3.09482635 27.81182861 3.09336853 C30.12459494 3.08778792 32.43726312 3.07523904 34.75 3.0625 C36.32161318 3.05748249 37.89322789 3.05292002 39.46484375 3.04882812 C43.30993343 3.03782485 47.1549501 3.02057361 51 3 C51 2.01 51 1.02 51 0 C53.64 0 56.28 0 59 0 C59.495 0.99 59.495 0.99 60 2 C58.67037928 2.48937429 57.33600575 2.96583581 56 3.4375 C54.88625 3.83775391 54.88625 3.83775391 53.75 4.24609375 C37.61241948 8.67017477 18.78970085 6.88856275 3 2 C2.01 1.34 1.02 0.68 0 0 Z " fill="#B393CC" transform="translate(413,546)"/>
<path d="M0 0 C0.99 0.66 1.98 1.32 3 2 C3.34057617 4.61376953 3.34057617 4.61376953 3.29296875 7.8828125 C3.28330078 9.04941406 3.27363281 10.21601563 3.26367188 11.41796875 C3.23853516 12.64128906 3.21339844 13.86460937 3.1875 15.125 C3.17396484 16.35605469 3.16042969 17.58710938 3.14648438 18.85546875 C3.11103543 21.90407843 3.06162079 24.951825 3 28 C2.01 28 1.02 28 0 28 C0 27.34 0 26.68 0 26 C-0.66 26 -1.32 26 -2 26 C-4.12536155 18.61183843 -3.52526599 9.48243693 -2 2 C-1.34 1.34 -0.68 0.68 0 0 Z " fill="#493A97" transform="translate(364,460)"/>
<path d="M0 0 C3.29451609 0.24805768 4.23210643 1.23245234 6.62109375 3.625 C7.57159327 4.74013453 8.50986904 5.86577112 9.4375 7 C9.93048584 7.59159912 10.42347168 8.18319824 10.93139648 8.79272461 C14.0090506 12.5628381 16.43706087 16.32403466 18.625 20.67578125 C21.72265905 25.91188107 26.04875729 30.39985402 30 35 C31.34078999 36.66067389 32.6767534 38.32531377 34 40 C33.505 40.99 33.505 40.99 33 42 C26.71097249 35.32292611 20.91410953 28.46297793 15.38671875 21.1484375 C11.08300247 15.47119475 6.64607049 9.90089426 2 4.5 C0 2 0 2 0 0 Z " fill="#F2C8D3" transform="translate(516,579)"/>
<path d="M0 0 C0.66 0.33 1.32 0.66 2 1 C1.68248779 1.4532666 1.36497559 1.9065332 1.0378418 2.37353516 C-0.4163987 4.45450742 -1.86447527 6.53969831 -3.3125 8.625 C-3.81201172 9.33785156 -4.31152344 10.05070312 -4.82617188 10.78515625 C-7.56201212 14.73491236 -9.97689156 18.62235239 -12 23 C-12.99 22.67 -13.98 22.34 -15 22 C-16.10970253 18.27457007 -16.53526174 16.21273325 -14.94140625 12.6015625 C-11.8737537 7.67738256 -9.78621648 5.38366046 -4 4 C-1.66468542 2.00064306 -1.66468542 2.00064306 0 0 Z " fill="#13419E" transform="translate(338,396)"/>
<path d="M0 0 C0.66 0.33 1.32 0.66 2 1 C0.9171875 2.15628906 0.9171875 2.15628906 -0.1875 3.3359375 C-1.12525968 4.34871795 -2.06274557 5.36175196 -3 6.375 C-3.47695313 6.88289062 -3.95390625 7.39078125 -4.4453125 7.9140625 C-7.16117714 10.52862765 -7.16117714 10.52862765 -8 14 C-12.13418591 15.94456928 -15.769997 16.37028021 -20.3125 16.625 C-21.56675781 16.69976563 -22.82101562 16.77453125 -24.11328125 16.8515625 C-25.54220703 16.92503906 -25.54220703 16.92503906 -27 17 C-27 16.34 -27 15.68 -27 15 C-26.46632813 14.75878418 -25.93265625 14.51756836 -25.3828125 14.26904297 C-22.91719642 13.14767822 -20.45869178 12.01146198 -18 10.875 C-17.16082031 10.49601563 -16.32164062 10.11703125 -15.45703125 9.7265625 C-9.75516962 7.07453384 -4.87184939 3.97538828 0 0 Z " fill="#333594" transform="translate(498,527)"/>
<path d="M0 0 C6.3323333 4.54629057 10.5069093 10.73962696 15 17 C14.67 17.66 14.34 18.32 14 19 C13.34 19 12.68 19 12 19 C12.66 21.31 13.32 23.62 14 26 C13.01 25.34 12.02 24.68 11 24 C10.3125 20.375 10.3125 20.375 10 17 C9.34 17 8.68 17 8 17 C7.67 15.68 7.34 14.36 7 13 C6.01 13 5.02 13 4 13 C3.13372601 11.40233897 2.28233535 9.79660056 1.4375 8.1875 C0.96183594 7.29417969 0.48617187 6.40085937 -0.00390625 5.48046875 C-1 3 -1 3 0 0 Z " fill="#F45F8C" transform="translate(532,588)"/>
<path d="M0 0 C3.01896163 1.50948081 3.10442301 3.73296778 4.1875 6.875 C8.05606493 17.19493268 13.62016712 25.03175784 21.27734375 32.90625 C23 35 23 35 23 38 C23.66 38 24.32 38 25 38 C24.67 38.66 24.34 39.32 24 40 C15.0277012 33.12760092 8.79938507 24.32051748 4 14.1875 C3.56397461 13.27303101 3.56397461 13.27303101 3.11914062 12.34008789 C1.25153532 8.17923964 0.45944929 4.48537369 0 0 Z " fill="#CBB3D6" transform="translate(362,491)"/>
<path d="M0 0 C2 1 2 1 3.10546875 3.66015625 C5.20564372 10.26395551 6.6011729 15.1950152 5 22 C4.67 22 4.34 22 4 22 C4 20.02 4 18.04 4 16 C3.34 16 2.68 16 2 16 C2 18.64 2 21.28 2 24 C-2.56508981 15.84805392 -2.30559358 8.72972614 0 0 Z " fill="#DF5DB6" transform="translate(572,431)"/>
<path d="M0 0 C2.43746854 2.43746854 2.98148996 4.4368928 4.125 7.6875 C8.77939762 20.01757088 15.69876347 36.46584231 27 44 C27 44.99 27 45.98 27 47 C28.485 47.495 28.485 47.495 30 48 C31.38576923 49.62332967 32.72641268 51.28724465 34 53 C33.505 53.99 33.505 53.99 33 55 C19.74736355 42.63087265 10.36002457 27.84690006 3 11.375 C2.69674805 10.69969238 2.39349609 10.02438477 2.08105469 9.32861328 C0.61579717 5.9254623 0 3.77211351 0 0 Z " fill="#1B2A64" transform="translate(313,505)"/>
<path d="M0 0 C1 2 1 2 -0.0078125 5.171875 C-2.07738514 9.70567205 -5.31985276 12.83528477 -8.875 16.25 C-9.48730469 16.86101563 -10.09960938 17.47203125 -10.73046875 18.1015625 C-13.94081409 21.25003823 -16.98242244 23.89191748 -21 26 C-20.70110558 22.86160854 -19.98321619 21.98471963 -17.6015625 19.81640625 C-16.61929688 19.07261719 -15.63703125 18.32882812 -14.625 17.5625 C-10.8278019 14.6820397 -8.07514928 12.3408735 -6 8 C-6 7.01 -6 6.02 -6 5 C-6.99 5 -7.98 5 -9 5 C-9.268125 5.804375 -9.53625 6.60875 -9.8125 7.4375 C-10.204375 8.283125 -10.59625 9.12875 -11 10 C-11.99 10.33 -12.98 10.66 -14 11 C-14 9 -14 9 -12.5625 7.5 C-12.046875 7.005 -11.53125 6.51 -11 6 C-10.67 5.34 -10.34 4.68 -10 4 C-8.02477154 2.95191959 -6.02518491 1.9479589 -4 1 C-4 1.66 -4 2.32 -4 3 C-3.01 3 -2.02 3 -1 3 C-0.67 2.01 -0.34 1.02 0 0 Z " fill="#742F89" transform="translate(555,541)"/>
<path d="M0 0 C0.66 0 1.32 0 2 0 C2.185625 0.61875 2.37125 1.2375 2.5625 1.875 C3.88373141 4.36612984 3.88373141 4.36612984 7.1875 4.625 C12.18381167 5.71663112 14.0970281 9.82088316 16.71484375 13.8828125 C17.13894531 14.58148437 17.56304687 15.28015625 18 16 C17.67 16.66 17.34 17.32 17 18 C8.98047395 15.56322791 4.94637921 11.32898996 1 4 C0.3125 1.6875 0.3125 1.6875 0 0 Z " fill="#F76AAD" transform="translate(368,503)"/>
<path d="M0 0 C0.33 0 0.66 0 1 0 C1.66 7.26 2.32 14.52 3 22 C3.24946388 15.50842822 3.24946388 15.50842822 3.47802734 9.01611328 C3.5136377 8.20899902 3.54924805 7.40188477 3.5859375 6.5703125 C3.6173584 5.74289551 3.6487793 4.91547852 3.68115234 4.06298828 C4 2 4 2 6 0 C6.19406478 1.64507218 6.38007935 3.29109594 6.5625 4.9375 C6.66691406 5.85402344 6.77132812 6.77054687 6.87890625 7.71484375 C6.91886719 8.46894531 6.95882812 9.22304688 7 10 C6.67 10.33 6.34 10.66 6 11 C5.78484055 12.60753245 5.62914141 14.22312588 5.5 15.83984375 C5.4175 16.82017578 5.335 17.80050781 5.25 18.81054688 C5.1675 19.84244141 5.085 20.87433594 5 21.9375 C4.83707074 23.96775131 4.67057894 25.99772084 4.5 28.02734375 C4.39171875 29.38460571 4.39171875 29.38460571 4.28125 30.76928711 C4 33 4 33 3 35 C2.34 35 1.68 35 1 35 C0.505 17.675 0.505 17.675 0 0 Z " fill="#843F9F" transform="translate(573,455)"/>
<path d="M0 0 C0.75 1.625 0.75 1.625 1 4 C-1.96109751 9.92219502 -7.00114249 13.79156013 -12 18 C-12.99 16.68 -13.98 15.36 -15 14 C-12.53324444 11.46276571 -10.12296115 9.09436553 -7.3125 6.9375 C-4.99883302 4.99902226 -4.27786709 3.6470104 -3 1 C-2.01 0.67 -1.02 0.34 0 0 Z " fill="#DF126A" transform="translate(549,545)"/>
<path d="M0 0 C0.66 1.32 1.32 2.64 2 4 C-4.27 3.67 -10.54 3.34 -17 3 C-17 2.67 -17 2.34 -17 2 C-28.385 1.505 -28.385 1.505 -40 1 C-40 0.67 -40 0.34 -40 0 C-35.10723085 -0.16811151 -30.2142924 -0.32861689 -25.32104492 -0.48217773 C-23.65756573 -0.53544145 -21.99415092 -0.5907578 -20.33081055 -0.64819336 C-17.93552527 -0.73054248 -15.54010311 -0.80542899 -13.14453125 -0.87890625 C-12.03486748 -0.91945885 -12.03486748 -0.91945885 -10.90278625 -0.96083069 C-3.29355799 -1.17917508 -3.29355799 -1.17917508 0 0 Z " fill="#82165F" transform="translate(554,627)"/>
<path d="M0 0 C0.99 0.33 1.98 0.66 3 1 C-0.05420018 4.11242661 -3.11975443 7.21342807 -6.1875 10.3125 C-7.48397461 11.63411133 -7.48397461 11.63411133 -8.80664062 12.98242188 C-9.64775391 13.82998047 -10.48886719 14.67753906 -11.35546875 15.55078125 C-12.12528076 16.33106689 -12.89509277 17.11135254 -13.68823242 17.9152832 C-15.992466 19.99320595 -18.29085413 21.50190309 -21 23 C-20.42333499 19.53242222 -19.28994833 17.9533644 -16.75 15.5625 C-16.11449219 14.95535156 -15.47898437 14.34820312 -14.82421875 13.72265625 C-14.22222656 13.15417969 -13.62023437 12.58570313 -13 12 C-12.195625 11.175 -11.39125 10.35 -10.5625 9.5 C-8.35555511 7.34688304 -6.14205861 5.214493 -3.875 3.125 C-3.21242188 2.50882812 -2.54984375 1.89265625 -1.8671875 1.2578125 C-1.25101562 0.84273438 -0.63484375 0.42765625 0 0 Z " fill="#1E56A8" transform="translate(357,372)"/>
<path d="M0 0 C0.70125 0.639375 1.4025 1.27875 2.125 1.9375 C1.17625 2.246875 0.2275 2.55625 -0.75 2.875 C-3.73580408 3.81144742 -3.73580408 3.81144742 -5.875 4.9375 C-8.10407014 4.36733939 -10.31088416 3.70824336 -12.5 3 C-13.68851562 2.61972656 -14.87703125 2.23945313 -16.1015625 1.84765625 C-17.01679688 1.54730469 -17.93203125 1.24695313 -18.875 0.9375 C-18.875 0.2775 -18.875 -0.3825 -18.875 -1.0625 C-5.82954545 -4.18206522 -5.82954545 -4.18206522 0 0 Z " fill="#779EE2" transform="translate(495.875,354.0625)"/>
<path d="M0 0 C3.42197585 1.42086389 5.09910023 3.06970764 7.25 6.0625 C7.77078125 6.77535156 8.2915625 7.48820313 8.828125 8.22265625 C10 10 10 10 10 11 C6.7 11 3.4 11 0 11 C-1.82941851 7.23355012 -2.23162684 5.03077875 -1 1 C-0.67 0.67 -0.34 0.34 0 0 Z " fill="#E3337F" transform="translate(556,620)"/>
<path d="M0 0 C0 0.66 0 1.32 0 2 C-5.73264364 2.81894909 -11.39884013 3.13429541 -17.1875 3.1875 C-18.20263672 3.20683594 -18.20263672 3.20683594 -19.23828125 3.2265625 C-23.54102229 3.23499925 -27.00163632 2.57322863 -31 1 C-31 0.67 -31 0.34 -31 0 C-26.77123165 -0.19732164 -22.54198062 -0.38114059 -18.3125 -0.5625 C-17.11431641 -0.61857422 -15.91613281 -0.67464844 -14.68164062 -0.73242188 C-13.52470703 -0.78076172 -12.36777344 -0.82910156 -11.17578125 -0.87890625 C-9.58117065 -0.94960327 -9.58117065 -0.94960327 -7.9543457 -1.02172852 C-5.15199618 -1.0011179 -2.7178227 -0.6525411 0 0 Z " fill="#F2549E" transform="translate(464,545)"/>
<path d="M0 0 C-0.69849772 3.9745504 -2.62892769 7.26574098 -4.5625 10.75 C-4.89185547 11.35199219 -5.22121094 11.95398438 -5.56054688 12.57421875 C-6.3696465 14.05170503 -7.18427662 15.52616036 -8 17 C-8.33 16.34 -8.66 15.68 -9 15 C-9.66 15 -10.32 15 -11 15 C-10.74821616 10.71967476 -10.47140149 8.5458333 -7.625 5.25 C-6.75875 4.5075 -5.8925 3.765 -5 3 C-4.443125 2.401875 -3.88625 1.80375 -3.3125 1.1875 C-2 0 -2 0 0 0 Z " fill="#0E2B7E" transform="translate(379,425)"/>
<path d="M0 0 C5.75 -0.125 5.75 -0.125 8 1 C9.53668865 1.22467831 11.07968054 1.40796805 12.625 1.5625 C13.44226563 1.64628906 14.25953125 1.73007812 15.1015625 1.81640625 C15.72804688 1.87699219 16.35453125 1.93757812 17 2 C17.12375 2.78375 17.2475 3.5675 17.375 4.375 C17.79117993 7.14057822 17.79117993 7.14057822 20 9 C15.15888235 8.41161801 11.03928805 6.92346884 6.625 4.9375 C5.98433594 4.65583984 5.34367187 4.37417969 4.68359375 4.08398438 C3.11970341 3.39540579 1.55946059 2.69855289 0 2 C0 1.34 0 0.68 0 0 Z " fill="#222355" transform="translate(379,581)"/>
<path d="M0 0 C3.84791078 1.28263693 4.93204705 3.08966475 7.4375 6.25 C8.19933594 7.20390625 8.96117187 8.1578125 9.74609375 9.140625 C10.48988281 10.08421875 11.23367188 11.0278125 12 12 C12.75410156 12.90234375 13.50820313 13.8046875 14.28515625 14.734375 C16 17 16 17 16 19 C15.01 18.67 14.02 18.34 13 18 C13 17.34 13 16.68 13 16 C12.401875 15.9175 11.80375 15.835 11.1875 15.75 C8.37067727 14.78423221 7.52200868 13.51131433 6 11 C6 10.34 6 9.68 6 9 C5.34 9 4.68 9 4 9 C2.4921875 7.25 2.4921875 7.25 0.875 5 C0.33617187 4.2575 -0.20265625 3.515 -0.7578125 2.75 C-1.37269531 1.88375 -1.37269531 1.88375 -2 1 C-1.34 0.67 -0.68 0.34 0 0 Z " fill="#E3D7F6" transform="translate(539,387)"/>
<path d="M0 0 C2.5 2.25 2.5 2.25 5 5 C5 6.32 5 7.64 5 9 C5.44494355 10.59967799 5.94738384 12.18425423 6.5 13.75 C6.7784375 14.54921875 7.056875 15.3484375 7.34375 16.171875 C7.5603125 16.77515625 7.776875 17.3784375 8 18 C8.99 18 9.98 18 11 18 C11.33 19.32 11.66 20.64 12 22 C12.66 22 13.32 22 14 22 C14.33 23.98 14.66 25.96 15 28 C6.54127536 19.85456146 0.57123551 11.99594576 0 0 Z " fill="#F8829C" transform="translate(528,583)"/>
<path d="M0 0 C6.73844784 3.21984946 13.08009664 6.42552922 19 11 C18.67 11.66 18.34 12.32 18 13 C16.70782829 12.52219697 15.41627954 12.04270894 14.125 11.5625 C13.04605469 11.16224609 13.04605469 11.16224609 11.9453125 10.75390625 C10 10 10 10 8 9 C8 8.34 8 7.68 8 7 C6.35 7 4.7 7 3 7 C2.67 5.68 2.34 4.36 2 3 C1.34 3 0.68 3 0 3 C0 2.01 0 1.02 0 0 Z " fill="#FAAFB2" transform="translate(385,526)"/>
<path d="M0 0 C0 0.66 0 1.32 0 2 C1.19625 1.67 2.3925 1.34 3.625 1 C7.15791497 0.10734177 10.34079109 -0.18296045 14 0 C11.68118495 2.67901932 9.68185532 3.66204403 6.3125 4.6875 C5.50425781 4.93886719 4.69601562 5.19023438 3.86328125 5.44921875 C2.94095703 5.72185547 2.94095703 5.72185547 2 6 C1.67 5.67 1.34 5.34 1 5 C-1.0587768 4.72046781 -3.11728432 4.55265649 -5.1875 4.37890625 C-6.0846875 4.19134766 -6.0846875 4.19134766 -7 4 C-7.33 3.34 -7.66 2.68 -8 2 C-5.09399739 0.74335022 -3.20395416 0 0 0 Z " fill="#5A4FA6" transform="translate(471,542)"/>
<path d="M0 0 C2.86476895 0.63661532 4.56043256 1.36795116 6.2578125 3.80859375 C7.33945344 5.86976268 8.32048955 7.77173522 9 10 C8.67 10.99 8.34 11.98 8 13 C5.5625 12.25 5.5625 12.25 3 11 C2.1875 8.875 2.1875 8.875 2 7 C1.34 7 0.68 7 0 7 C0 4.69 0 2.38 0 0 Z " fill="#D046A6" transform="translate(368,496)"/>
<path d="M0 0 C-0.33 0.66 -0.66 1.32 -1 2 C1.9615696 3.4807848 4.83506295 3.35314037 8.125 3.5625 C9.40632813 3.64628906 10.68765625 3.73007812 12.0078125 3.81640625 C13.48894531 3.90728516 13.48894531 3.90728516 15 4 C15 4.33 15 4.66 15 5 C12.16607074 5.08174796 9.33455181 5.14084985 6.5 5.1875 C5.70851563 5.21263672 4.91703125 5.23777344 4.1015625 5.26367188 C-1.66567793 5.33458057 -5.68205275 4.20830013 -11 2 C-13.42544409 1.46128115 -13.42544409 1.46128115 -15.5 1.3125 C-16.655 1.209375 -17.81 1.10625 -19 1 C-19 0.67 -19 0.34 -19 0 C-12.46837378 -1.10914408 -6.56492112 -0.78441153 0 0 Z " fill="#F877AE" transform="translate(438,544)"/>
<path d="M0 0 C6.21820786 0.70102783 12.44744532 1.16530945 18.6875 1.625 C18.6875 1.955 18.6875 2.285 18.6875 2.625 C16.92986328 2.71587891 16.92986328 2.71587891 15.13671875 2.80859375 C6.63619299 3.2583235 -1.84286486 3.74818755 -10.3125 4.625 C-6.69424843 0.88614004 -5.21513595 -0.63162039 0 0 Z " fill="#233983" transform="translate(431.3125,391.375)"/>
<path d="M0 0 C0.64839844 0.20496094 1.29679687 0.40992188 1.96484375 0.62109375 C13.76510952 3.86190262 25.83740391 3.7426733 38 4 C38 4.33 38 4.66 38 5 C26.12 5 14.24 5 2 5 C1.34 3.35 0.68 1.7 0 0 Z " fill="#3C143B" transform="translate(497,626)"/>
<path d="M0 0 C8.50922528 -0.40735653 15.8390222 0.56907044 24 3 C24 3.33 24 3.66 24 4 C15.9661503 5.52366115 8.80227708 4.43285288 1 2 C0.67 1.34 0.34 0.68 0 0 Z " fill="#5D8BD4" transform="translate(459,349)"/>
<path d="M0 0 C0.66 1.32 1.32 2.64 2 4 C1.01 3.34 0.02 2.68 -1 2 C-3.32387947 1.60612212 -5.65793749 1.26513915 -8 1 C-8 1.66 -8 2.32 -8 3 C-6.02 3 -4.04 3 -2 3 C-2 3.99 -2 4.98 -2 6 C-8.15234375 5.4140625 -8.15234375 5.4140625 -10 5 C-10.33 4.34 -10.66 3.68 -11 3 C-16.61 3 -22.22 3 -28 3 C-28.33 2.34 -28.66 1.68 -29 1 C-9.65957447 -0.19148936 -9.65957447 -0.19148936 0 0 Z " fill="#2C1D64" transform="translate(472,591)"/>
<path d="M0 0 C0.99 0 1.98 0 3 0 C3 0.66 3 1.32 3 2 C-1.13418591 3.94456928 -4.769997 4.37028021 -9.3125 4.625 C-10.56675781 4.69976563 -11.82101562 4.77453125 -13.11328125 4.8515625 C-14.54220703 4.92503906 -14.54220703 4.92503906 -16 5 C-16 4.34 -16 3.68 -16 3 C-10.2631356 -0.03104174 -6.55497742 -1.57319458 0 0 Z " fill="#3B3A98" transform="translate(487,539)"/>
<path d="M0 0 C0.33 0 0.66 0 1 0 C1 8.58 1 17.16 1 26 C-0.32 25.67 -1.64 25.34 -3 25 C-2.69482108 21.02023584 -2.37963664 17.04132772 -2.0625 13.0625 C-1.97548828 11.92619141 -1.88847656 10.78988281 -1.79882812 9.61914062 C-1.71181641 8.53955078 -1.62480469 7.45996094 -1.53515625 6.34765625 C-1.456604 5.34742432 -1.37805176 4.34719238 -1.29711914 3.31665039 C-1 1 -1 1 0 0 Z " fill="#533EA0" transform="translate(579,465)"/>
<path d="M0 0 C3.68069887 1.53643852 5.98775204 3.78150945 8.75 6.625 C9.54921875 7.44226563 10.3484375 8.25953125 11.171875 9.1015625 C12.07679688 10.04128906 12.07679688 10.04128906 13 11 C12.01 11.99 11.02 12.98 10 14 C8.9171875 12.63875 8.9171875 12.63875 7.8125 11.25 C6.01134205 9.05773347 4.49470524 7.61822174 2.1875 5.875 C1.1046875 4.946875 1.1046875 4.946875 0 4 C0 2.68 0 1.36 0 0 Z " fill="#F39DDD" transform="translate(536,380)"/>
<path d="M0 0 C0 0.66 0 1.32 0 2 C1.32 2.33 2.64 2.66 4 3 C1.44559585 6.61139896 1.44559585 6.61139896 -1 8 C-4.75107732 8.14751428 -8.31070671 7.65257202 -12 7 C-2.73352436 0 -2.73352436 0 0 0 Z " fill="#D63F81" transform="translate(524,568)"/>
<path d="M0 0 C0.33 0 0.66 0 1 0 C1.33549966 4.80882847 0.57164869 6.9996576 -2 11 C-3.09496351 13.63876341 -4.04145382 16.30694167 -5 19 C-5.99 18.01 -6.98 17.02 -8 16 C-6.57250019 12.20950293 -4.83763458 8.72877544 -2.875 5.1875 C-2.33617187 4.21167969 -1.79734375 3.23585938 -1.2421875 2.23046875 C-0.83226562 1.49441406 -0.42234375 0.75835938 0 0 Z " fill="#A01F79" transform="translate(567,514)"/>
<path d="M0 0 C7.52800597 -0.3764003 7.52800597 -0.3764003 9.8515625 1.4765625 C12.78521102 3.55678599 15.06411321 3.43790915 18.625 3.5625 C24.79113186 3.79113186 24.79113186 3.79113186 27 6 C7.99544419 5.58997722 7.99544419 5.58997722 0 1 C0 0.67 0 0.34 0 0 Z " fill="#CF98C1" transform="translate(402,541)"/>
<path d="M0 0 C0.66 1.32 1.32 2.64 2 4 C-0.97 8.29 -3.94 12.58 -7 17 C-8.40318642 12.79044073 -6.88224523 10.90391604 -5 7 C-4.34 6.01 -3.68 5.02 -3 4 C-2.34 4 -1.68 4 -1 4 C-0.67 2.68 -0.34 1.36 0 0 Z " fill="#5A378F" transform="translate(563,529)"/>
<path d="M0 0 C2 1 2 1 3.20703125 3.04296875 C5.67095255 7.10656009 8.66784594 10.65161929 11.6875 14.3125 C12.29400391 15.05306641 12.90050781 15.79363281 13.52539062 16.55664062 C15.01404032 18.37349655 16.50563349 20.18784577 18 22 C17.67 22.66 17.34 23.32 17 24 C0 5.70020121 0 5.70020121 0 0 Z " fill="#EEA4C2" transform="translate(532,597)"/>
<path d="M0 0 C0.66 0.33 1.32 0.66 2 1 C1.401875 2.0725 0.80375 3.145 0.1875 4.25 C-3.23460369 11.05780202 -4.54693159 18.57169702 -6 26 C-8.11181696 22.83227455 -8.25246422 21.91491862 -7.6171875 18.3046875 C-5.92038801 11.96853752 -3.64406152 5.46609228 0 0 Z " fill="#197ED2" transform="translate(368,432)"/>
<path d="M0 0 C0.33 0.99 0.66 1.98 1 3 C1.66 3 2.32 3 3 3 C3.95465783 5.16967689 4.14401212 6.56328793 3.3984375 8.82421875 C2.64129615 10.5684743 1.82390802 12.28627131 1 14 C0.01 13.34 -0.98 12.68 -2 12 C-2.36792655 7.43771074 -2.61838609 3.92757913 0 0 Z " fill="#133490" transform="translate(367,437)"/>
<path d="M0 0 C3.03852705 1.40976705 5.5939595 3.08870228 8.25 5.125 C8.95640625 5.66382813 9.6628125 6.20265625 10.390625 6.7578125 C10.92171875 7.16773438 11.4528125 7.57765625 12 8 C11.34 9.32 10.68 10.64 10 12 C6.37 9.03 2.74 6.06 -1 3 C-0.67 2.01 -0.34 1.02 0 0 Z " fill="#D3ACF0" transform="translate(525,371)"/>
<path d="M0 0 C1.175625 0.14985352 1.175625 0.14985352 2.375 0.30273438 C4.29266838 0.54828947 6.20898925 0.80432929 8.125 1.0625 C8.125 1.7225 8.125 2.3825 8.125 3.0625 C0.17542008 3.28678282 -7.14611181 3.01653042 -14.875 1.0625 C-14.875 0.7325 -14.875 0.4025 -14.875 0.0625 C-9.66266344 -1.12817752 -5.21754025 -0.71188473 0 0 Z " fill="#4E104C" transform="translate(514.875,626.9375)"/>
<path d="M0 0 C0.66 0 1.32 0 2 0 C3.7265625 1.96875 3.7265625 1.96875 5.625 4.5 C6.25664063 5.3353125 6.88828125 6.170625 7.5390625 7.03125 C8.02117188 7.6809375 8.50328125 8.330625 9 9 C8.01 9.99 7.02 10.98 6 12 C4.8001722 10.57277341 3.6154424 9.13284224 2.4375 7.6875 C1.77621094 6.88699219 1.11492188 6.08648437 0.43359375 5.26171875 C-0.27603516 4.14216797 -0.27603516 4.14216797 -1 3 C-0.67 2.01 -0.34 1.02 0 0 Z " fill="#F992CC" transform="translate(548,392)"/>
<path d="M0 0 C0.95827504 3.04498611 0.99431517 5.02273931 0.22265625 8.109375 C-0.05288086 9.24052734 -0.05288086 9.24052734 -0.33398438 10.39453125 C-0.53314453 11.17183594 -0.73230469 11.94914062 -0.9375 12.75 C-1.13279297 13.54277344 -1.32808594 14.33554687 -1.52929688 15.15234375 C-2.01124079 17.10362885 -2.50452088 19.05210783 -3 21 C-3.99 20.67 -4.98 20.34 -6 20 C-6.32061518 15.29764397 -5.75199658 13.66932877 -3 10 C-2.01310803 7.42967443 -2.01310803 7.42967443 -1.3125 4.75 C-1.06113281 3.85796875 -0.80976562 2.9659375 -0.55078125 2.046875 C-0.36902344 1.37140625 -0.18726563 0.6959375 0 0 Z " fill="#3F41A6" transform="translate(578,492)"/>
<path d="M0 0 C0.33 0 0.66 0 1 0 C2.26305335 5.07476794 3.27036084 9.72796354 3 15 C2.67 14.34 2.34 13.68 2 13 C0.7934375 12.8453125 0.7934375 12.8453125 -0.4375 12.6875 C-1.283125 12.460625 -2.12875 12.23375 -3 12 C-4.3125 9.4375 -4.3125 9.4375 -5 7 C-4.34 7 -3.68 7 -3 7 C-2.34 7.66 -1.68 8.32 -1 9 C-0.67 6.03 -0.34 3.06 0 0 Z " fill="#7C4CA5" transform="translate(367,479)"/>
<path d="M0 0 C0.4375 2.1875 0.4375 2.1875 0 5 C-2.13995327 6.98441782 -4.50175965 8.5023304 -7 10 C-7.99 9.34 -8.98 8.68 -10 8 C-8.71451591 6.66070495 -7.42141845 5.32871357 -6.125 4 C-5.04605469 2.88625 -5.04605469 2.88625 -3.9453125 1.75 C-2 0 -2 0 0 0 Z " fill="#0C2A77" transform="translate(394,407)"/>
<path d="M0 0 C4.83628305 0.99043705 9.47618873 1.95698846 14 4 C11.33874255 5.79570284 10.21888938 6.03345719 6.984375 5.5390625 C5.38335937 5.08660156 5.38335937 5.08660156 3.75 4.625 C2.67234375 4.32851563 1.5946875 4.03203125 0.484375 3.7265625 C-0.33546875 3.48679687 -1.1553125 3.24703125 -2 3 C-1.34 2.67 -0.68 2.34 0 2 C0 1.34 0 0.68 0 0 Z " fill="#4B89D8" transform="translate(473,347)"/>
<path d="M0 0 C5.75074971 1.46587738 10.27871746 2.64758053 13.875 7.5625 C14.431875 8.7690625 14.431875 8.7690625 15 10 C14.67 10.66 14.34 11.32 14 12 C13.62488281 11.50628906 13.24976563 11.01257813 12.86328125 10.50390625 C9.72331222 6.57301303 8.12670559 4.69279805 3 4 C1.1875 1.9375 1.1875 1.9375 0 0 Z " fill="#E79AB7" transform="translate(511,575)"/>
<path d="M0 0 C0.66 0.33 1.32 0.66 2 1 C-2.95 6.28 -7.9 11.56 -13 17 C-13 13.0613652 -11.449776 10.92218459 -9 8 C-6.42347593 5.55355287 -3.73221163 3.26954879 -1 1 C-0.67 0.67 -0.34 0.34 0 0 Z " fill="#052F8A" transform="translate(389,408)"/>
<path d="M0 0 C1.40765625 0.00966797 1.40765625 0.00966797 2.84375 0.01953125 C5.20620585 0.16892184 7.23716665 0.52039111 9.5 1.1875 C9.5 1.8475 9.5 2.5075 9.5 3.1875 C3.23 2.8575 -3.04 2.5275 -9.5 2.1875 C-5.58993268 0.23246634 -4.17751666 -0.06312182 0 0 Z " fill="#78164A" transform="translate(546.5,627.8125)"/>
<path d="M0 0 C4.05281712 1.22527029 7.44360764 2.69880494 11 5 C10.01 5.66 9.02 6.32 8 7 C4.4691418 6.11728545 2.03839305 5.02559537 -1 3 C-0.67 2.01 -0.34 1.02 0 0 Z " fill="#181D50" transform="translate(371,575)"/>
<path d="M0 0 C0.33 0 0.66 0 1 0 C1.40652968 5.42039575 0.03993514 9.07015675 -2 14 C-3.51171875 12.6171875 -3.51171875 12.6171875 -5 11 C-4.8125 9.125 -4.8125 9.125 -4 7 C-3.690625 6.13375 -3.38125 5.2675 -3.0625 4.375 C-2 2 -2 2 0 0 Z " fill="#5A2E95" transform="translate(571,504)"/>
<path d="M0 0 C3.7602985 0.58107632 6.53035032 1.65199496 9.8125 3.5625 C10.60269531 4.01753906 11.39289063 4.47257812 12.20703125 4.94140625 C12.79871094 5.29074219 13.39039063 5.64007813 14 6 C14 6.99 14 7.98 14 9 C9 7 9 7 4 5 C4 4.34 4 3.68 4 3 C2.68 2.34 1.36 1.68 0 1 C0 0.67 0 0.34 0 0 Z " fill="#CAD9FD" transform="translate(500,361)"/>
<path d="M0 0 C2.875 2.0625 2.875 2.0625 5 4 C0.02398374 5.71050559 -3.42616295 4.00885647 -8 2 C-8 1.34 -8 0.68 -8 0 C-5.0233079 -1.48834605 -3.18307201 -0.8113713 0 0 Z " fill="#6E9DE8" transform="translate(493,352)"/>
<path d="M0 0 C0.91644287 0.00523682 1.83288574 0.01047363 2.77709961 0.01586914 C3.76645508 0.0190918 4.75581055 0.02231445 5.77514648 0.02563477 C6.81606445 0.03401367 7.85698242 0.04239258 8.92944336 0.05102539 C10.49662109 0.05779297 10.49662109 0.05779297 12.09545898 0.06469727 C14.68600996 0.07652627 17.27644895 0.0930085 19.86694336 0.11352539 C19.86694336 0.44352539 19.86694336 0.77352539 19.86694336 1.11352539 C16.59806768 1.50712926 13.32680923 1.87517839 10.05444336 2.23852539 C9.12567383 2.35067383 8.1969043 2.46282227 7.23999023 2.57836914 C6.34731445 2.67504883 5.45463867 2.77172852 4.53491211 2.87133789 C3.71273193 2.96560059 2.89055176 3.05986328 2.04345703 3.15698242 C-0.13305664 3.11352539 -0.13305664 3.11352539 -3.13305664 1.11352539 C-2.13305664 0.11352539 -2.13305664 0.11352539 0 0 Z " fill="#5085CD" transform="translate(442.133056640625,343.886474609375)"/>
<path d="M0 0 C1.26328125 0.11085938 2.5265625 0.22171875 3.828125 0.3359375 C4.79234375 0.43132813 5.7565625 0.52671875 6.75 0.625 C6.42 1.285 6.09 1.945 5.75 2.625 C-0.29124766 4.06008565 -5.47761562 3.75827249 -11.25 1.625 C-7.48564408 -0.86555871 -4.38382623 -0.40590984 0 0 Z " fill="#141141" transform="translate(421.25,591.375)"/>
<path d="M0 0 C1.98 1.65 3.96 3.3 6 5 C5.814375 5.763125 5.62875 6.52625 5.4375 7.3125 C4.77180827 10.08967375 4.77180827 10.08967375 6 13 C5.34 13 4.68 13 4 13 C3.13372601 11.40233897 2.28233535 9.79660056 1.4375 8.1875 C0.96183594 7.29417969 0.48617187 6.40085937 -0.00390625 5.48046875 C-1 3 -1 3 0 0 Z " fill="#FA6C91" transform="translate(532,588)"/>
<path d="M0 0 C5.28 0 10.56 0 16 0 C11.7952889 3.15353333 11.14908143 3.36246719 6.25 3.1875 C5.26515625 3.16042969 4.2803125 3.13335938 3.265625 3.10546875 C2.51796875 3.07066406 1.7703125 3.03585937 1 3 C0.67 2.01 0.34 1.02 0 0 Z " fill="#130B42" transform="translate(428,593)"/>
<path d="M0 0 C1.70840281 1.63412443 2.93453047 2.86906094 4 5 C3.91348369 6.54613014 3.75997364 8.08909387 3.5625 9.625 C3.40974609 10.85089844 3.40974609 10.85089844 3.25390625 12.1015625 C3.17011719 12.72804688 3.08632813 13.35453125 3 14 C0.63469592 11.63469592 0.66214744 10.80088502 0.375 7.5625 C0.30023437 6.78003906 0.22546875 5.99757813 0.1484375 5.19140625 C0.03144233 3.46418814 0 1.73117598 0 0 Z " fill="#142E81" transform="translate(520,439)"/>
<path d="M0 0 C8.35010941 1.33041575 8.35010941 1.33041575 11.0625 4.125 C11.371875 4.74375 11.68125 5.3625 12 6 C7.23649415 5.28547412 2.65798604 4.20465156 -2 3 C-1.34 2.67 -0.68 2.34 0 2 C0 1.34 0 0.68 0 0 Z " fill="#252653" transform="translate(401,588)"/>
<path d="M0 0 C1.64846769 0.44876616 3.29373455 0.90930488 4.9375 1.375 C5.85402344 1.63023437 6.77054687 1.88546875 7.71484375 2.1484375 C10 3 10 3 11 5 C9.8553125 4.9690625 9.8553125 4.9690625 8.6875 4.9375 C5.89814214 4.87057159 5.89814214 4.87057159 3 6 C2.01 5.34 1.02 4.68 0 4 C0 2.68 0 1.36 0 0 Z " fill="#111054" transform="translate(396,584)"/>
<path d="M0 0 C2.25 -0.375 2.25 -0.375 5 0 C7.3125 3 7.3125 3 9 6 C8.67 6.66 8.34 7.32 8 8 C6.68 7.34 5.36 6.68 4 6 C4 5.34 4 4.68 4 4 C3.01 3.67 2.02 3.34 1 3 C0.67 2.01 0.34 1.02 0 0 Z " fill="#EC51A5" transform="translate(373,508)"/>
<path d="M0 0 C0.66 0.33 1.32 0.66 2 1 C-2.56630734 5.87072783 -7.74976539 9.89156398 -13 14 C-13.66 13.67 -14.32 13.34 -15 13 C-11.35940302 9.00708719 -7.46601172 6.20301067 -2.890625 3.33203125 C-0.86772381 2.13011784 -0.86772381 2.13011784 0 0 Z " fill="#581E7C" transform="translate(537,554)"/>
<path d="M0 0 C0.33 0.66 0.66 1.32 1 2 C-1.95668756 6.47726973 -4.05848696 9.59983652 -9 12 C-8.45015228 8.12488273 -6.72444669 6.40423494 -3.9375 3.75 C-3.20402344 3.04359375 -2.47054688 2.3371875 -1.71484375 1.609375 C-1.14894531 1.07828125 -0.58304687 0.5471875 0 0 Z " fill="#14489F" transform="translate(345,383)"/>
<path d="M0 0 C4.59817352 1.45205479 4.59817352 1.45205479 6.375 3.875 C7.09806909 6.3334349 6.85178626 7.61499846 6 10 C0.42857143 3.71428571 0.42857143 3.71428571 0 0 Z " fill="#BC3DA0" transform="translate(368,496)"/>
<path d="M0 0 C0.66 0 1.32 0 2 0 C2.33 0.66 2.66 1.32 3 2 C3.99 2.33 4.98 2.66 6 3 C6.33 4.98 6.66 6.96 7 9 C7.66 9 8.32 9 9 9 C9 10.65 9 12.3 9 14 C5.25876024 9.7045025 2.65848126 5.00099548 0 0 Z " fill="#B29DDD" transform="translate(550,403)"/>
<path d="M0 0 C0 0.66 0 1.32 0 2 C2.31 2 4.62 2 7 2 C7 2.33 7 2.66 7 3 C1.39 2.67 -4.22 2.34 -10 2 C-10 1.34 -10 0.68 -10 0 C-2.25 -1.125 -2.25 -1.125 0 0 Z " fill="#37325A" transform="translate(429,594)"/>
<path d="M0 0 C0.75 1.625 0.75 1.625 1 4 C-1.12958117 7.86479546 -3.28086509 10.60912756 -7 13 C-5.50163895 9.88801935 -3.80066242 6.9465385 -2 4 C-2.66 3.67 -3.32 3.34 -4 3 C-3 1 -3 1 0 0 Z " fill="#B51772" transform="translate(549,545)"/>
<path d="M0 0 C0.33 0 0.66 0 1 0 C1.66 4.95 2.32 9.9 3 15 C2.01 15.495 2.01 15.495 1 16 C-0.57300962 10.26696495 -1.24327778 5.84340558 0 0 Z " fill="#7790C6" transform="translate(360,476)"/>
<path d="M0 0 C0.66 0.66 1.32 1.32 2 2 C1.625 4.625 1.625 4.625 1 7 C0.34 6.01 -0.32 5.02 -1 4 C-1.99 4 -2.98 4 -4 4 C-4.4021875 5.2065625 -4.4021875 5.2065625 -4.8125 6.4375 C-5.4003125 7.7059375 -5.4003125 7.7059375 -6 9 C-6.99 9.33 -7.98 9.66 -9 10 C-9 8 -9 8 -7.5625 6.5 C-7.046875 6.005 -6.53125 5.51 -6 5 C-5.67 4.34 -5.34 3.68 -5 3 C-3.35857037 1.9590934 -1.69287785 0.95495674 0 0 Z " fill="#8D1C79" transform="translate(550,542)"/>
<path d="M0 0 C3.3 0.33 6.6 0.66 10 1 C10.33 2.65 10.66 4.3 11 6 C6.48986609 5.46939601 3.61621781 3.69113883 0 1 C0 0.67 0 0.34 0 0 Z " fill="#FD9BB3" transform="translate(383,524)"/>
<path d="M0 0 C0.33 0 0.66 0 1 0 C1.02696365 1.79158489 1.04637917 3.58328473 1.0625 5.375 C1.07410156 6.37273437 1.08570313 7.37046875 1.09765625 8.3984375 C1 11 1 11 0 13 C-0.66 13 -1.32 13 -2 13 C-2.19294408 8.17639811 -1.75747614 4.50353262 0 0 Z " fill="#922D91" transform="translate(576,477)"/>
<path d="M0 0 C1.32 0 2.64 0 4 0 C4 0.66 4 1.32 4 2 C5.670625 2.37125 5.670625 2.37125 7.375 2.75 C11 4 11 4 12.4375 6.125 C12.7159375 7.053125 12.7159375 7.053125 13 8 C8.27626146 6.37621488 4.05818166 3.89006982 0 1 C0 0.67 0 0.34 0 0 Z " fill="#BFA2C0" transform="translate(389,533)"/>
<path d="M0 0 C2.64 1.65 5.28 3.3 8 5 C7.67 5.66 7.34 6.32 7 7 C5.35 6.67 3.7 6.34 2 6 C2 5.01 2 4.02 2 3 C1.34 3 0.68 3 0 3 C0 2.01 0 1.02 0 0 Z " fill="#F1C4C3" transform="translate(385,526)"/>
<path d="M0 0 C0.66 0.33 1.32 0.66 2 1 C0.84414715 4.91211733 -0.35534962 7.8745041 -3 11 C-4 8 -4 8 -3.22265625 5.95703125 C-2.83980469 5.24933594 -2.45695313 4.54164063 -2.0625 3.8125 C-1.68222656 3.09707031 -1.30195312 2.38164063 -0.91015625 1.64453125 C-0.60980469 1.10183594 -0.30945313 0.55914063 0 0 Z " fill="#4A45A0" transform="translate(568,521)"/>
<path d="M0 0 C2.46800047 1.15173355 4.04783565 2.04783565 6 4 C6 4.99 6 5.98 6 7 C6.66 7 7.32 7 8 7 C7.67 7.66 7.34 8.32 7 9 C5.82460004 8.07347299 4.65989423 7.13336613 3.5 6.1875 C2.52546875 5.40439453 2.52546875 5.40439453 1.53125 4.60546875 C0 3 0 3 0 0 Z " fill="#D0BBCF" transform="translate(379,522)"/>
<path d="M0 0 C4.1666604 0.47348414 6.92884715 1.04696841 10 4 C10 4.66 10 5.32 10 6 C5.56909529 4.79157144 3.01887244 3.48331435 0 0 Z " fill="#ADC5F8" transform="translate(491,357)"/>
<path d="M0 0 C1.98 0.99 3.96 1.98 6 3 C6 3.66 6 4.32 6 5 C-0.75 4.25 -0.75 4.25 -3 2 C-2.01 1.34 -1.02 0.68 0 0 Z " fill="#89AAF8" transform="translate(498,355)"/>
<path d="M0 0 C2.1875 0.3125 2.1875 0.3125 4 1 C3.34 3.31 2.68 5.62 2 8 C1.34 8 0.68 8 0 8 C-0.12375 7.360625 -0.2475 6.72125 -0.375 6.0625 C-0.684375 5.0415625 -0.684375 5.0415625 -1 4 C-1.66 3.67 -2.32 3.34 -3 3 C-1.75 1.4375 -1.75 1.4375 0 0 Z " fill="#CF135F" transform="translate(532,560)"/>
<path d="M0 0 C2.64 0 5.28 0 8 0 C8.33 0.66 8.66 1.32 9 2 C6.35261084 3.4606285 5.10551666 4 2 4 C2 3.34 2 2.68 2 2 C1.34 2 0.68 2 0 2 C0 1.34 0 0.68 0 0 Z " fill="#A26FBF" transform="translate(464,546)"/>
<path d="M0 0 C0.66 0.33 1.32 0.66 2 1 C2.625 3.5625 2.625 3.5625 3 6 C2.34 6 1.68 6 1 6 C1 7.65 1 9.3 1 11 C0.34 11 -0.32 11 -1 11 C-1.14285714 3.57142857 -1.14285714 3.57142857 0 0 Z " fill="#E761B4" transform="translate(572,431)"/>
<path d="M0 0 C1.65 1.65 3.3 3.3 5 5 C4.34 6.32 3.68 7.64 3 9 C0.9375 6.75 0.9375 6.75 -1 4 C-0.75 1.6875 -0.75 1.6875 0 0 Z " fill="#F383C1" transform="translate(556,402)"/>
<path d="M0 0 C1.258125 0.12375 2.51625 0.2475 3.8125 0.375 C4.87404297 0.47941406 4.87404297 0.47941406 5.95703125 0.5859375 C8 1 8 1 11 3 C10.67 3.99 10.34 4.98 10 6 C6.7 4.35 3.4 2.7 0 1 C0 0.67 0 0.34 0 0 Z " fill="#324589" transform="translate(476,400)"/>
<path d="M0 0 C3.3 0 6.6 0 10 0 C10.33 0.99 10.66 1.98 11 3 C7.7 3 4.4 3 1 3 C0.67 2.01 0.34 1.02 0 0 Z " fill="#CE387B" transform="translate(555,628)"/>
<path d="M0 0 C0 0.66 0 1.32 0 2 C-1.45792884 2.05399736 -2.91642712 2.09279177 -4.375 2.125 C-5.18710937 2.14820313 -5.99921875 2.17140625 -6.8359375 2.1953125 C-9 2 -9 2 -11 0 C-6.98195309 -0.84098656 -3.98196457 -1.05404945 0 0 Z " fill="#B650A4" transform="translate(464,545)"/>
<path d="M0 0 C0.33 0 0.66 0 1 0 C1.36923077 5.53846154 1.36923077 5.53846154 -0.5 7.875 C-1.2425 8.431875 -1.2425 8.431875 -2 9 C-2 8.34 -2 7.68 -2 7 C-2.66 6.67 -3.32 6.34 -4 6 C-1.125 1.125 -1.125 1.125 0 0 Z " fill="#102473" transform="translate(372,433)"/>
<path d="M0 0 C2.86697492 1.28519565 4.97607712 2.57129254 7 5 C7 5.66 7 6.32 7 7 C4.20171644 6.61402985 3.1794116 6.19863427 1.25 4.0625 C0 2 0 2 0 0 Z " fill="#E9EAFC" transform="translate(532,381)"/>
<path d="M0 0 C3.16115776 1.36983503 3.9927092 1.9890638 6 5 C5.01 5.66 4.02 6.32 3 7 C1.5 5.75 1.5 5.75 0 4 C0 2.68 0 1.36 0 0 Z " fill="#E9AAEA" transform="translate(536,380)"/>
<path d="M0 0 C0.33 0.99 0.66 1.98 1 3 C-1.64 4.98 -4.28 6.96 -7 9 C-5.71284823 3.85139294 -4.09341999 3.13538553 0 0 Z " fill="#942C7C" transform="translate(541,558)"/>
<path d="M0 0 C2.88437779 1.29299694 4.87219421 2.65941363 7 5 C5.25 5.75 5.25 5.75 3 6 C0.75 4.0625 0.75 4.0625 -1 2 C-0.67 1.34 -0.34 0.68 0 0 Z " fill="#C4B2F5" transform="translate(525,371)"/>
<path d="M0 0 C7.75 -0.125 7.75 -0.125 10 1 C10 1.66 10 2.32 10 3 C4.58461538 3.36923077 4.58461538 3.36923077 1.625 1.5 C1.08875 1.005 0.5525 0.51 0 0 Z " fill="#3B7CCC" transform="translate(463,346)"/>
<path d="M0 0 C0.33 0 0.66 0 1 0 C1.36923077 5.41538462 1.36923077 5.41538462 -0.5 8.375 C-0.995 8.91125 -1.49 9.4475 -2 10 C-3.05236973 6.65155086 -3.20005388 5.40920111 -1.625 2.1875 C-1.08875 1.465625 -0.5525 0.74375 0 0 Z " fill="#8D2283" transform="translate(567,514)"/>
<path d="M0 0 C4.34263862 -0.16702456 7.20960634 -0.12999997 11 2 C9.54263913 2.19491452 8.08405407 2.38069358 6.625 2.5625 C5.81289063 2.66691406 5.00078125 2.77132813 4.1640625 2.87890625 C2 3 2 3 0 2 C0 1.34 0 0.68 0 0 Z " fill="#6996DB" transform="translate(472,351)"/>
<path d="M0 0 C4.62 0 9.24 0 14 0 C13 2 13 2 11 2.6875 C10.34 2.790625 9.68 2.89375 9 3 C8.67 2.67 8.34 2.34 8 2 C6.65252916 1.76924918 5.29622435 1.58846937 3.9375 1.4375 C2.638125 1.293125 1.33875 1.14875 0 1 C0 0.67 0 0.34 0 0 Z " fill="#7C5EB1" transform="translate(464,545)"/>
<path d="M0 0 C2.61724095 2.36797991 4.32861729 4.89600354 6 8 C6 8.66 6 9.32 6 10 C3 9 3 9 1.3125 6.125 C0 3 0 3 0 0 Z " fill="#DABBE2" transform="translate(366,502)"/>
<path d="M0 0 C1.98 0.66 3.96 1.32 6 2 C6 2.66 6 3.32 6 4 C5.01 4 4.02 4 3 4 C2.67 5.32 2.34 6.64 2 8 C1.34 5.36 0.68 2.72 0 0 Z " fill="#9D50AA" transform="translate(363,490)"/>
<path d="M0 0 C1.32 0.66 2.64 1.32 4 2 C4 2.99 4 3.98 4 5 C1.36 4.34 -1.28 3.68 -4 3 C-2.68 2.01 -1.36 1.02 0 0 Z " fill="#304488" transform="translate(471,395)"/>
<path d="M0 0 C4.875 1.75 4.875 1.75 6 4 C2.98968256 4.93423645 2.13349732 5.04449911 -1 4 C-0.67 2.68 -0.34 1.36 0 0 Z " fill="#E31F6B" transform="translate(525,566)"/>
<path d="M0 0 C3 3 3 3 3.07421875 5.04296875 C2.71614583 7.02864583 2.35807292 9.01432292 2 11 C1.67 11 1.34 11 1 11 C0.67 7.37 0.34 3.74 0 0 Z " fill="#CC58B4" transform="translate(575,442)"/>
<path d="M0 0 C0.66 0 1.32 0 2 0 C3.46726798 3.81489674 2.43336419 6.29011622 1 10 C0.67 10 0.34 10 0 10 C-0.74926071 6.33694766 -1.2380014 3.57644848 0 0 Z " fill="#233083" transform="translate(368,440)"/>
<path d="M0 0 C2.875 -0.125 2.875 -0.125 6 0 C6.66 0.66 7.32 1.32 8 2 C7.67 2.66 7.34 3.32 7 4 C4.97954558 3.39816251 2.97888961 2.72693904 1 2 C0.67 1.34 0.34 0.68 0 0 Z " fill="#8DADEC" transform="translate(485,355)"/>
<path d="M0 0 C0.78375 0.495 1.5675 0.99 2.375 1.5 C4.78552327 3.16537965 4.78552327 3.16537965 7 3 C7 4.32 7 5.64 7 7 C4.13302508 5.71480435 2.02392288 4.42870746 0 2 C0 1.34 0 0.68 0 0 Z " fill="#C74A8A" transform="translate(545,617)"/>
<path d="M0 0 C4.875 1.75 4.875 1.75 6 4 C5.34 4.66 4.68 5.32 4 6 C2.62437146 4.71034824 1.29233607 3.37310707 0 2 C0 1.34 0 0.68 0 0 Z " fill="#FE87A9" transform="translate(393,527)"/>
<path d="M0 0 C0.33 0 0.66 0 1 0 C0.67 2.97 0.34 5.94 0 9 C-0.99 8.01 -1.98 7.02 -3 6 C-2.6875 3.8125 -2.6875 3.8125 -2 2 C-1.34 2 -0.68 2 0 2 C0 1.34 0 0.68 0 0 Z " fill="#72288D" transform="translate(569,509)"/>
<path d="M0 0 C0.33 0.99 0.66 1.98 1 3 C1.66 3 2.32 3 3 3 C3 5.97 3 8.94 3 12 C2.67 12 2.34 12 2 12 C0.70756464 7.8803623 -0.26252625 4.33168317 0 0 Z " fill="#D568BD" transform="translate(570,439)"/>
<path d="M0 0 C1.98 0 3.96 0 6 0 C6.66 1.32 7.32 2.64 8 4 C4.09161134 4 2.88405893 2.49432124 0 0 Z " fill="#344588" transform="translate(490,408)"/>
<path d="M0 0 C0.66 0 1.32 0 2 0 C2.33 0.66 2.66 1.32 3 2 C3.66 1.67 4.32 1.34 5 1 C8 4.75 8 4.75 8 7 C7.01 6.67 6.02 6.34 5 6 C5 5.34 5 4.68 5 4 C4.360625 3.896875 3.72125 3.79375 3.0625 3.6875 C2.381875 3.460625 1.70125 3.23375 1 3 C0.67 2.01 0.34 1.02 0 0 Z " fill="#DAB8E7" transform="translate(547,399)"/>
<path d="M0 0 C0.99 0.33 1.98 0.66 3 1 C2.67 1.99 2.34 2.98 2 4 C0.02 4 -1.96 4 -4 4 C-2.68 2.68 -1.36 1.36 0 0 Z " fill="#18317D" transform="translate(425,392)"/>
<path d="M0 0 C3.26954202 0.56371414 4.82575883 1.49962266 7 4 C6.67 4.66 6.34 5.32 6 6 C3.96166576 4.7260411 1.96147874 3.38938077 0 2 C0 1.34 0 0.68 0 0 Z " fill="#EDBBCD" transform="translate(516,579)"/>
<path d="M0 0 C3.91211733 1.15585285 6.8745041 2.35534962 10 5 C7.8125 5.3125 7.8125 5.3125 5 5 C2.1875 2.5 2.1875 2.5 0 0 Z " fill="#F8A0BA" transform="translate(409,540)"/>
<path d="M0 0 C0.66 0 1.32 0 2 0 C3.78305524 2.63892176 4.99059621 4.97178863 6 8 C4.125 7.375 4.125 7.375 2 6 C0.75 2.875 0.75 2.875 0 0 Z " fill="#E066B0" transform="translate(368,503)"/>
</svg>
